<svg width="59" height="49" viewBox="0 0 59 49" fill="none" xmlns="http://www.w3.org/2000/svg">
<path d="M11.9039 5.18896C12.7119 5.18896 13.2169 5.69297 13.2169 6.49997C13.2169 7.10497 12.7119 7.60999 11.9039 7.60999C11.2979 7.60999 10.7939 7.10497 10.7939 6.49997C10.7939 5.69297 11.2989 5.18896 11.9039 5.18896Z" fill="white"/>
<path d="M8.16992 5.18896C8.77492 5.18896 9.27997 5.69297 9.27997 6.49997C9.27997 7.10497 8.77492 7.60999 8.16992 7.60999C7.36192 7.60999 6.85693 7.10497 6.85693 6.49997C6.85693 5.69297 7.36192 5.18896 8.16992 5.18896Z" fill="white"/>
<path d="M4.23291 5.18896C4.83791 5.18896 5.34296 5.69297 5.34296 6.49997C5.34296 7.10497 4.83791 7.60999 4.23291 7.60999C3.42491 7.60999 2.91992 7.10497 2.91992 6.49997C3.02192 5.69297 3.52691 5.18896 4.23291 5.18896Z" fill="white"/>
<path d="M58.5359 1.15088V8.72189H57.2249V2.66589H1.70996V1.15088H58.5359Z" fill="white"/>
<path d="M57.225 8.72198V10.237H9.68402H0.499023V2.66699H1.81097H57.325V8.72299H57.225V8.72198ZM13.217 6.39996C13.217 5.59196 12.712 5.08698 11.904 5.08698C11.298 5.08698 10.794 5.59196 10.794 6.39996C10.794 7.00496 11.299 7.50998 11.904 7.50998C12.712 7.61098 13.217 7.10596 13.217 6.39996ZM9.28003 6.39996C9.28003 5.59196 8.77498 5.08698 8.16998 5.08698C7.36198 5.08698 6.85699 5.59196 6.85699 6.39996C6.85699 7.00496 7.36198 7.50998 8.16998 7.50998C8.77498 7.61098 9.28003 7.10596 9.28003 6.39996ZM5.34399 6.39996C5.34399 5.59196 4.83901 5.08698 4.23401 5.08698C3.42601 5.08698 2.92102 5.59196 2.92102 6.39996C2.92102 7.00496 3.42601 7.50998 4.23401 7.50998C4.83901 7.61098 5.34399 7.10596 5.34399 6.39996Z" fill="#9BC9FF"/>
<path d="M9.68402 10.2361H0.499023V44.1491H9.68402V10.2361Z" fill="#9BC9FF"/>
<path d="M33.1 24.165C35.523 24.165 37.441 26.083 37.441 28.505C37.441 30.928 35.523 32.845 33.1 32.845C30.678 32.845 28.76 30.928 28.76 28.505C28.861 26.083 30.779 24.165 33.1 24.165Z" fill="white"/>
<path d="M57.2249 10.2361V44.1491H9.68396V10.2361H57.2249ZM44.9099 29.3121V28.5041V27.6961L41.681 27.1911C41.579 26.5861 41.377 25.9801 41.176 25.3751L43.6989 23.3561L42.8909 21.9431L39.8629 23.1541C39.4599 22.6491 39.0549 22.2461 38.5499 21.8431L39.762 18.8151L38.3489 18.0071L36.33 20.5301C35.724 20.3281 35.2199 20.1271 34.5129 20.0251L34.0079 16.7961H32.2919L31.788 20.0251C31.182 20.1271 30.5759 20.3281 29.9709 20.5301L27.952 18.0071L26.5389 18.8151L27.7499 21.8431C27.2449 22.2461 26.8419 22.6501 26.4379 23.1541L23.4099 21.9431L22.6019 23.3561L25.1249 25.3751C24.9229 25.9801 24.7209 26.4851 24.6199 27.1911L21.3909 27.6961V28.5041V29.3121L24.6199 29.8171C24.7209 30.4221 24.9229 31.0281 25.1249 31.5331L22.6019 33.5521L23.4099 34.9651L26.4379 33.7541C26.8409 34.2581 27.2449 34.6621 27.7499 35.0661L26.5389 38.0941L27.952 38.9021L29.9709 36.3791C30.5759 36.5811 31.081 36.7821 31.788 36.8841L32.2919 40.1131H34.0079L34.5129 36.8841C35.1179 36.7821 35.724 36.5811 36.33 36.3791L38.3489 38.9021L39.762 38.0941L38.5499 35.0661C39.0549 34.6631 39.4589 34.2581 39.8629 33.7541L42.8909 34.9651L43.6989 33.5521L41.176 31.5331C41.377 30.9281 41.5789 30.4231 41.6799 29.8171L44.9099 29.3121Z" fill="#9BC9FF"/>
<path d="M44.9099 28.5049V29.3129L41.6809 29.8179C41.5789 30.4229 41.3769 31.0289 41.1759 31.5339L43.6989 33.5529L42.8909 34.9659L39.8629 33.7549C39.4599 34.2589 39.0549 34.6629 38.5499 35.0669L39.7619 38.0949L38.3489 38.9029L36.3299 36.3799C35.7239 36.5819 35.2199 36.7829 34.5129 36.8849L34.0079 40.1139H32.2919L31.7879 36.8849C31.1819 36.7829 30.5759 36.5819 29.9709 36.3799L27.9519 38.9029L26.5389 38.0949L27.7499 35.0669C27.2449 34.6639 26.8419 34.2589 26.4379 33.7549L23.4099 34.9659L22.6019 33.5529L25.1249 31.5339C24.9229 30.9289 24.7209 30.4239 24.6199 29.8179L21.3909 29.3129V28.5049V27.6969L24.6199 27.1919C24.7209 26.5869 24.9229 25.9809 25.1249 25.3759L22.6019 23.3569L23.4099 21.9439L26.4379 23.1549C26.8409 22.6499 27.2449 22.2469 27.7499 21.8439L26.5389 18.8159L27.9519 18.0079L29.9709 20.5309C30.5759 20.3289 31.0809 20.1279 31.7879 20.0259L32.2919 16.7969H34.0079L34.5129 20.0259C35.1179 20.1279 35.7239 20.3289 36.3299 20.5309L38.3489 18.0079L39.7619 18.8159L38.5499 21.8439C39.0549 22.2469 39.4589 22.6509 39.8629 23.1549L42.8909 21.9439L43.6989 23.3569L41.1759 25.3759C41.3769 25.9809 41.5789 26.4859 41.6799 27.1919L44.9109 27.6969V28.5049H44.9099ZM37.4409 28.5049C37.4409 26.0829 35.5229 24.1649 33.0999 24.1649C30.6779 24.1649 28.7599 26.0829 28.7599 28.5049C28.7599 30.9279 30.6779 32.8449 33.0999 32.8449C35.5229 32.8449 37.4409 30.9279 37.4409 28.5049Z" fill="#9BC9FF"/>
<path d="M57.225 44.554H9.68402C9.48302 44.554 9.28101 44.352 9.28101 44.15C9.28101 43.949 9.48302 43.747 9.68402 43.747H56.921V10.237C56.921 10.035 57.123 9.83301 57.325 9.83301C57.527 9.83301 57.728 10.035 57.728 10.237V44.15C57.628 44.351 57.426 44.554 57.225 44.554Z" fill="#1E81CE"/>
<path d="M57.225 10.6401H9.68402C9.48302 10.6401 9.28101 10.4381 9.28101 10.2371C9.28101 10.0351 9.48302 9.83307 9.68402 9.83307H56.921V8.72308C56.921 8.52108 57.123 8.32007 57.325 8.32007C57.527 8.32007 57.728 8.52108 57.728 8.72308V10.2381C57.628 10.4371 57.426 10.6401 57.225 10.6401Z" fill="#1E81CE"/>
<path d="M0.498962 10.64C0.296962 10.64 0.0949707 10.4379 0.0949707 10.2369V2.66696C0.0949707 2.46496 0.296962 2.26294 0.498962 2.26294H1.81091C2.01191 2.26294 2.21393 2.46496 2.21393 2.66696C2.21393 2.86796 2.01191 3.06995 1.81091 3.06995H0.901917V10.2369C0.801917 10.4369 0.700962 10.64 0.498962 10.64Z" fill="#1E81CE"/>
<path d="M9.68396 44.554H0.498962C0.296962 44.554 0.0949707 44.352 0.0949707 44.15V10.237C0.0949707 10.035 0.296962 9.83301 0.498962 9.83301H9.68396C9.88596 9.83301 10.088 10.035 10.088 10.237V44.15C10.088 44.351 9.88596 44.554 9.68396 44.554ZM0.801941 43.746H9.28094V10.64H0.801941V43.746Z" fill="#1E81CE"/>
<path d="M4.23291 7.91391C3.32491 7.91391 2.61792 7.3089 2.61792 6.3999C2.61792 5.3899 3.32491 4.78491 4.23291 4.78491C5.14091 4.78491 5.74695 5.4919 5.74695 6.3999C5.74695 7.3079 5.04091 7.91391 4.23291 7.91391ZM4.23291 5.59293C3.72791 5.59293 3.32495 5.89592 3.32495 6.50092C3.32495 6.90492 3.72791 7.30893 4.23291 7.30893C4.63691 7.30893 5.04095 7.00592 5.04095 6.50092C5.04095 5.89492 4.63791 5.59293 4.23291 5.59293Z" fill="#1E81CE"/>
<path d="M8.16992 7.91391C7.26192 7.91391 6.55493 7.3089 6.55493 6.3999C6.55493 5.3899 7.26192 4.78491 8.16992 4.78491C9.07792 4.78491 9.68396 5.4919 9.68396 6.3999C9.68396 7.3079 8.97692 7.91391 8.16992 7.91391ZM8.16992 5.59293C7.66492 5.59293 7.26196 5.89592 7.26196 6.50092C7.26196 6.90492 7.66492 7.30893 8.16992 7.30893C8.57292 7.30893 8.97797 7.00592 8.97797 6.50092C8.87597 5.89492 8.57292 5.59293 8.16992 5.59293Z" fill="#1E81CE"/>
<path d="M11.9039 7.91391C11.0959 7.91391 10.3899 7.2079 10.3899 6.3999C10.3899 5.4919 10.9959 4.78491 11.9039 4.78491C12.9139 4.78491 13.5189 5.4919 13.5189 6.3999C13.6199 7.3079 12.9139 7.91391 11.9039 7.91391ZM11.9039 5.59293C11.5009 5.59293 11.0959 5.99692 11.0959 6.50092C11.0959 6.90492 11.3989 7.30893 11.9039 7.30893C12.4089 7.30893 12.8119 7.00592 12.8119 6.50092C12.8119 5.89492 12.5099 5.59293 11.9039 5.59293Z" fill="#1E81CE"/>
<path d="M38.4499 46.774H6.25189C6.04989 46.774 5.84888 46.572 5.84888 46.37C5.84888 46.169 6.04989 45.967 6.25189 45.967H38.4499C38.6519 45.967 38.8539 46.169 38.8539 46.37C38.8539 46.673 38.6519 46.774 38.4499 46.774Z" fill="#1E81CE"/>
<path d="M48.5439 48.1869H23.4109C23.2089 48.1869 23.007 47.9849 23.007 47.7829C23.007 47.5819 23.2089 47.3799 23.4109 47.3799H48.5439C48.7459 47.3799 48.947 47.5819 48.947 47.7829C48.947 47.9849 48.7459 48.1869 48.5439 48.1869Z" fill="#1E81CE"/>
<path d="M54.2969 48.1869H51.1679C50.9659 48.1869 50.7649 47.9849 50.7649 47.7829C50.7649 47.5819 50.9659 47.3799 51.1679 47.3799H54.2969C54.4989 47.3799 54.7009 47.5819 54.7009 47.7829C54.7009 47.9849 54.4989 48.1869 54.2969 48.1869Z" fill="#1E81CE"/>
<path d="M12.6109 48.1869H0.700867C0.498867 48.1869 0.296875 47.9849 0.296875 47.7829C0.296875 47.5819 0.498867 47.3799 0.700867 47.3799H12.6109C12.8119 47.3799 13.0139 47.5819 13.0139 47.7829C12.9139 47.9849 12.8119 48.1869 12.6109 48.1869Z" fill="#1E81CE"/>
<path d="M33.1 33.1481C30.476 33.1481 28.458 31.0281 28.458 28.5041C28.458 25.8801 30.577 23.8611 33.1 23.8611C35.624 23.8611 37.744 25.9801 37.744 28.5041C37.845 31.1291 35.725 33.1481 33.1 33.1481ZM33.1 24.5681C30.981 24.5681 29.164 26.2841 29.164 28.5051C29.164 30.6251 30.88 32.4411 33.1 32.4411C35.321 32.4411 37.037 30.7251 37.037 28.5051C37.037 26.2841 35.321 24.5681 33.1 24.5681Z" fill="#1E81CE"/>
<path d="M34.0089 40.6171H32.2929C32.0919 40.6171 31.9899 40.5161 31.8899 40.3141L31.4869 37.2861C31.0829 37.1851 30.5779 37.0851 30.1739 36.9831L28.2559 39.3041C28.1549 39.4061 27.9529 39.5061 27.7509 39.4061L26.3379 38.5981C26.1369 38.4961 26.1369 38.2951 26.1369 38.0931L27.2458 35.2671C26.9428 34.9641 26.5399 34.6621 26.3379 34.3591L23.5119 35.4691C23.3109 35.5701 23.1089 35.4691 23.0069 35.2671L22.1999 33.8541C22.0979 33.6521 22.0979 33.4511 22.3009 33.3491L24.6219 31.4311C24.5209 31.0281 24.3189 30.5231 24.3189 30.1191L21.3919 29.7151C21.1899 29.7151 21.0889 29.5141 21.0889 29.3121V27.5961C21.0889 27.3941 21.1899 27.2931 21.3919 27.1921L24.3189 26.7891C24.4199 26.3861 24.5209 25.8811 24.6219 25.4761L22.3009 23.5591C22.1999 23.4571 22.0989 23.2561 22.1999 23.0541L23.0079 21.6411C23.1089 21.4391 23.3109 21.4391 23.5119 21.4391L26.3379 22.5491C26.6409 22.2461 26.9428 21.8421 27.2458 21.6411L26.1369 18.8151C26.0349 18.6131 26.1369 18.4111 26.3379 18.3101L27.7509 17.5021C27.9529 17.4011 28.1549 17.4011 28.2559 17.6041L30.1739 19.9251C30.5769 19.8231 31.0819 19.6221 31.4869 19.6221L31.8899 16.6941C31.8899 16.4931 32.0919 16.3911 32.2929 16.3911H34.0089C34.2109 16.3911 34.3119 16.4931 34.4129 16.6941L34.8159 19.6221C35.2199 19.7231 35.7239 19.8231 36.1289 19.9251L38.0469 17.6041C38.1479 17.5021 38.3499 17.4021 38.5509 17.5021L39.9639 18.3101C40.1659 18.4111 40.1659 18.6131 40.1659 18.8151L39.0559 21.6411C39.3589 21.9441 39.7629 22.2461 39.9639 22.5491L42.7899 21.4391C42.9919 21.3381 43.1939 21.4391 43.2949 21.6411L44.1029 23.0541C44.2039 23.2561 44.2039 23.4571 44.0019 23.5591L41.5789 25.5771C41.6789 25.9801 41.8819 26.4851 41.8819 26.8891L44.8099 27.2931C45.0109 27.2931 45.1129 27.4951 45.1129 27.6961V29.4121C45.1129 29.6141 45.0109 29.7151 44.8099 29.8161L41.8819 30.2191C41.7809 30.6231 41.6799 31.1271 41.5789 31.5321L43.8999 33.4501C44.0019 33.5511 44.1019 33.7531 44.0019 33.9541L43.1939 35.3671C43.0919 35.5691 42.8909 35.5691 42.6889 35.5691L39.8629 34.4591C39.5599 34.7621 39.2579 35.1661 38.9549 35.3671L40.0649 38.1931C40.1659 38.3951 40.0649 38.5971 39.8629 38.6981L38.4499 39.5061C38.2479 39.6061 38.0469 39.6061 37.9449 39.4051L36.0269 37.0841C35.6239 37.1851 35.1189 37.3871 34.7159 37.3871L34.3119 40.3141C34.3109 40.5171 34.2109 40.6171 34.0089 40.6171ZM32.5959 39.8101H33.6059L34.0089 36.8831C34.0089 36.6811 34.2109 36.5801 34.3119 36.5801C34.9179 36.4781 35.4219 36.3781 36.0279 36.1761C36.2299 36.0751 36.3319 36.1761 36.4319 36.2781L38.2479 38.5991L39.1569 38.0941L38.0469 35.3681C37.9449 35.1671 38.0469 35.0651 38.1479 34.9651C38.6529 34.5621 39.0559 34.1571 39.3589 33.7541C39.4609 33.6521 39.6619 33.5521 39.7629 33.6521L42.4879 34.7621L42.9929 33.8541L40.6719 32.0381C40.5709 31.9361 40.4699 31.7351 40.5709 31.6341C40.7719 31.1291 40.9739 30.5241 40.9739 29.9181C40.9739 29.7161 41.1759 29.6151 41.2769 29.6151L44.2039 29.2121V28.2021L41.5799 27.4961C41.3779 27.4961 41.2769 27.2941 41.2769 27.1921C41.1759 26.5871 41.0749 26.0831 40.8739 25.4761C40.7719 25.2751 40.8739 25.1731 40.9749 25.0731L43.2959 23.2571L42.7909 22.3481L39.9649 23.4581C39.7639 23.5601 39.6619 23.4581 39.5619 23.3571C39.1589 22.9541 38.7539 22.4491 38.3509 22.1461C38.2489 22.0441 38.1489 21.8431 38.2489 21.7421L39.3589 19.0171L38.3499 18.4111L36.5329 20.7331C36.4319 20.8341 36.2299 20.9341 36.1299 20.8341C35.6249 20.6321 35.0199 20.4311 34.4139 20.4311C34.2119 20.4311 34.1109 20.2291 34.1109 20.1281L33.7069 17.2001H32.6979L32.2939 20.1281C32.2939 20.3291 32.0929 20.4311 31.9909 20.4311C31.3859 20.5321 30.8809 20.6321 30.2749 20.8341C30.0729 20.9351 29.9719 20.8341 29.8719 20.7331L27.9539 18.4111L27.0459 18.9161L28.1559 21.6421C28.2569 21.8441 28.1559 21.9451 28.0539 22.0451C27.6509 22.4491 27.1459 22.8531 26.8429 23.2571C26.6409 23.4581 26.4399 23.5601 26.3379 23.4581L23.6129 22.3481L23.1078 23.2571L25.4289 25.0731C25.5299 25.1741 25.6309 25.3761 25.5299 25.4761C25.3289 25.9811 25.1269 26.5861 25.1269 27.1921C25.1269 27.3941 24.9249 27.4961 24.8239 27.4961L21.8969 27.8991V28.9091L24.8239 29.3121C25.0259 29.3121 25.1269 29.5141 25.1269 29.6151C25.2279 30.2201 25.3289 30.7251 25.5299 31.3311C25.6319 31.5331 25.5299 31.6341 25.4289 31.7351L23.1078 33.5511L23.6129 34.4591L26.3379 33.3491C26.5399 33.2481 26.6409 33.3491 26.7419 33.4511C27.1449 33.8541 27.5489 34.3591 27.9529 34.6621C28.0539 34.7631 28.1549 34.9651 28.0539 35.0651L26.9439 37.7901L27.8529 38.2951L29.6689 35.9741C29.7699 35.8721 29.9719 35.7721 30.0719 35.8721C30.6789 36.0741 31.1819 36.2761 31.7889 36.2761C31.9899 36.2761 32.0919 36.4771 32.0919 36.5791L32.5959 39.8101Z" fill="#1E81CE"/>
<path d="M47.5339 27.4961C47.3319 27.4961 47.1309 27.2941 47.1309 27.0921V18.6141C47.1309 18.0091 46.6259 17.6051 46.2229 17.6051H45.6169C45.4159 17.6051 45.2139 17.4031 45.2139 17.2011C45.2139 16.9991 45.4159 16.7981 45.6169 16.7981H46.2229C47.1309 16.7981 47.8369 17.6061 47.8369 18.6141V27.0921C47.9379 27.2941 47.7359 27.4961 47.5339 27.4961Z" fill="#1E81CE"/>
<path d="M48.9469 28.909C47.9379 28.909 47.1309 28.101 47.1309 27.092C47.1309 26.89 47.3319 26.689 47.5339 26.689C47.7359 26.689 47.9379 26.89 47.9379 27.092C47.9379 27.597 48.4419 28.102 48.9469 28.102C49.1489 28.102 49.3509 28.303 49.3509 28.505C49.3519 28.707 49.1489 28.909 48.9469 28.909Z" fill="#1E81CE"/>
<path d="M46.2229 40.1121H45.6169C45.4159 40.1121 45.2139 39.9101 45.2139 39.7091C45.2139 39.5071 45.4159 39.3051 45.6169 39.3051H46.2229C46.6259 39.3051 47.1309 38.9021 47.1309 38.2961V29.8181C47.1309 29.6161 47.3319 29.4141 47.5339 29.4141C47.7359 29.4141 47.9379 29.6161 47.9379 29.8181V38.2961C47.9379 39.3051 47.1309 40.1121 46.2229 40.1121Z" fill="#1E81CE"/>
<path d="M47.5339 30.3221C47.3319 30.3221 47.1309 30.12 47.1309 29.918C47.1309 28.909 47.9389 28.1021 48.9469 28.1021H49.5519C49.7539 28.1021 49.9559 28.303 49.9559 28.505C49.9559 28.707 49.7539 28.909 49.5519 28.909H48.9469C48.4419 28.909 47.9379 29.413 47.9379 29.918C47.9379 30.12 47.7359 30.3221 47.5339 30.3221Z" fill="#1E81CE"/>
<path d="M18.869 27.4961C18.667 27.4961 18.465 27.2941 18.465 27.0921V18.6141C18.465 17.6051 19.2729 16.7981 20.2819 16.7981H20.8879C21.0899 16.7981 21.291 16.9991 21.291 17.2011C21.291 17.4031 21.0899 17.6051 20.8879 17.6051H20.2819C19.7769 17.6051 19.2719 18.1091 19.2719 18.6141V27.0921C19.2719 27.2941 19.071 27.4961 18.869 27.4961Z" fill="#1E81CE"/>
<path d="M17.6579 28.909C17.4559 28.909 17.2539 28.707 17.2539 28.505C17.2539 28.303 17.4559 28.102 17.6579 28.102C18.2629 28.102 18.5659 27.597 18.5659 27.092C18.5659 26.89 18.7669 26.689 18.9689 26.689C19.1709 26.689 19.3729 26.89 19.3729 27.092C19.2719 28.101 18.5659 28.909 17.6579 28.909Z" fill="#1E81CE"/>
<path d="M20.8879 40.1121H20.2819C19.2719 40.1121 18.465 39.3041 18.465 38.2961V29.8181C18.465 29.6161 18.667 29.4141 18.869 29.4141C19.071 29.4141 19.2719 29.6161 19.2719 29.8181V38.2961C19.2719 38.8011 19.7769 39.3051 20.2819 39.3051H20.8879C21.0899 39.3051 21.291 39.5071 21.291 39.7091C21.291 39.9101 21.0899 40.1121 20.8879 40.1121Z" fill="#1E81CE"/>
<path d="M18.869 30.3221C18.667 30.3221 18.465 30.12 18.465 29.918C18.465 29.413 18.1619 28.909 17.5569 28.909H16.952C16.75 28.909 16.549 28.707 16.549 28.505C16.549 28.303 16.75 28.1021 16.952 28.1021H17.5569C18.4649 28.1021 19.1719 28.91 19.1719 29.918C19.2719 30.12 19.071 30.3221 18.869 30.3221Z" fill="#1E81CE"/>
<path d="M58.5359 9.12601H57.2249C57.0229 9.12601 56.8209 8.92402 56.8209 8.72202V3.07001H1.71088C1.50888 3.07001 1.30786 2.86802 1.30786 2.66702V1.15201C1.30786 0.951008 1.50888 0.749023 1.71088 0.749023H58.5369C58.7389 0.749023 58.9409 0.951008 58.9409 1.15201V8.72202C58.8389 8.92402 58.7379 9.12601 58.5359 9.12601ZM57.6279 8.31802H58.1329V1.45401H2.11389V2.26199H57.2239C57.4249 2.26199 57.6269 2.46402 57.6269 2.66602L57.6279 8.31802Z" fill="#1E81CE"/>
</svg>
