<svg width="1908" height="1875" viewBox="0 0 1908 1875" fill="none" xmlns="http://www.w3.org/2000/svg">
<path d="M15.4939 21.896C21.5403 21.896 26.4419 16.9944 26.4419 10.948C26.4419 4.90159 21.5403 0 15.4939 0C9.44748 0 4.5459 4.90159 4.5459 10.948C4.5459 16.9944 9.44748 21.896 15.4939 21.896Z" fill="white"/>
<path d="M125.854 21.896C131.9 21.896 136.802 16.9944 136.802 10.948C136.802 4.90159 131.9 0 125.854 0C119.808 0 114.906 4.90159 114.906 10.948C114.906 16.9944 119.808 21.896 125.854 21.896Z" fill="white"/>
<path d="M236.215 21.896C242.261 21.896 247.163 16.9944 247.163 10.948C247.163 4.90159 242.261 0 236.215 0C230.168 0 225.267 4.90159 225.267 10.948C225.267 16.9944 230.168 21.896 236.215 21.896Z" fill="white"/>
<path d="M346.576 21.896C352.622 21.896 357.524 16.9944 357.524 10.948C357.524 4.90159 352.622 0 346.576 0C340.53 0 335.628 4.90159 335.628 10.948C335.628 16.9944 340.53 21.896 346.576 21.896Z" fill="white"/>
<path d="M456.937 21.896C462.983 21.896 467.885 16.9944 467.885 10.948C467.885 4.90159 462.983 0 456.937 0C450.89 0 445.989 4.90159 445.989 10.948C445.989 16.9944 450.89 21.896 456.937 21.896Z" fill="white"/>
<path d="M567.297 21.896C573.343 21.896 578.245 16.9944 578.245 10.948C578.245 4.90159 573.343 0 567.297 0C561.25 0 556.349 4.90159 556.349 10.948C556.349 16.9944 561.25 21.896 567.297 21.896Z" fill="white"/>
<path d="M677.658 21.896C683.704 21.896 688.606 16.9944 688.606 10.948C688.606 4.90159 683.704 0 677.658 0C671.612 0 666.71 4.90159 666.71 10.948C666.71 16.9944 671.612 21.896 677.658 21.896Z" fill="white"/>
<path d="M788.019 21.896C794.065 21.896 798.967 16.9944 798.967 10.948C798.967 4.90159 794.065 0 788.019 0C781.972 0 777.071 4.90159 777.071 10.948C777.071 16.9944 781.972 21.896 788.019 21.896Z" fill="white"/>
<path d="M898.38 21.896C904.426 21.896 909.328 16.9944 909.328 10.948C909.328 4.90159 904.426 0 898.38 0C892.333 0 887.432 4.90159 887.432 10.948C887.432 16.9944 892.333 21.896 898.38 21.896Z" fill="white"/>
<path d="M1008.74 21.896C1014.79 21.896 1019.69 16.9944 1019.69 10.948C1019.69 4.90159 1014.79 0 1008.74 0C1002.69 0 997.792 4.90159 997.792 10.948C997.792 16.9944 1002.69 21.896 1008.74 21.896Z" fill="white"/>
<path d="M1119.1 21.896C1125.15 21.896 1130.05 16.9944 1130.05 10.948C1130.05 4.90159 1125.15 0 1119.1 0C1113.05 0 1108.15 4.90159 1108.15 10.948C1108.15 16.9944 1113.05 21.896 1119.1 21.896Z" fill="white"/>
<path d="M1229.46 21.896C1235.51 21.896 1240.41 16.9944 1240.41 10.948C1240.41 4.90159 1235.51 0 1229.46 0C1223.42 0 1218.51 4.90159 1218.51 10.948C1218.51 16.9944 1223.42 21.896 1229.46 21.896Z" fill="white"/>
<path d="M1339.82 21.896C1345.87 21.896 1350.77 16.9944 1350.77 10.948C1350.77 4.90159 1345.87 0 1339.82 0C1333.78 0 1328.87 4.90159 1328.87 10.948C1328.87 16.9944 1333.78 21.896 1339.82 21.896Z" fill="white"/>
<path d="M1450.18 21.896C1456.23 21.896 1461.13 16.9944 1461.13 10.948C1461.13 4.90159 1456.23 0 1450.18 0C1444.14 0 1439.23 4.90159 1439.23 10.948C1439.23 16.9944 1444.14 21.896 1450.18 21.896Z" fill="white"/>
<path d="M1560.54 21.896C1566.59 21.896 1571.49 16.9944 1571.49 10.948C1571.49 4.90159 1566.59 0 1560.54 0C1554.5 0 1549.6 4.90159 1549.6 10.948C1549.6 16.9944 1554.5 21.896 1560.54 21.896Z" fill="white"/>
<path d="M1670.9 21.896C1676.95 21.896 1681.85 16.9944 1681.85 10.948C1681.85 4.90159 1676.95 0 1670.9 0C1664.86 0 1659.96 4.90159 1659.96 10.948C1659.96 16.9944 1664.86 21.896 1670.9 21.896Z" fill="white"/>
<path d="M1781.27 21.896C1787.31 21.896 1792.21 16.9944 1792.21 10.948C1792.21 4.90159 1787.31 0 1781.27 0C1775.22 0 1770.32 4.90159 1770.32 10.948C1770.32 16.9944 1775.22 21.896 1781.27 21.896Z" fill="white"/>
<path d="M1891.63 21.896C1897.67 21.896 1902.57 16.9944 1902.57 10.948C1902.57 4.90159 1897.67 0 1891.63 0C1885.58 0 1880.68 4.90159 1880.68 10.948C1880.68 16.9944 1885.58 21.896 1891.63 21.896Z" fill="white"/>
<path d="M15.4939 124.812C21.5403 124.812 26.4419 119.91 26.4419 113.864C26.4419 107.818 21.5403 102.916 15.4939 102.916C9.44748 102.916 4.5459 107.818 4.5459 113.864C4.5459 119.91 9.44748 124.812 15.4939 124.812Z" fill="white"/>
<path d="M125.854 124.812C131.9 124.812 136.802 119.91 136.802 113.864C136.802 107.818 131.9 102.916 125.854 102.916C119.808 102.916 114.906 107.818 114.906 113.864C114.906 119.91 119.808 124.812 125.854 124.812Z" fill="white"/>
<path d="M236.215 124.812C242.261 124.812 247.163 119.91 247.163 113.864C247.163 107.818 242.261 102.916 236.215 102.916C230.168 102.916 225.267 107.818 225.267 113.864C225.267 119.91 230.168 124.812 236.215 124.812Z" fill="white"/>
<path d="M346.576 124.812C352.622 124.812 357.524 119.91 357.524 113.864C357.524 107.818 352.622 102.916 346.576 102.916C340.53 102.916 335.628 107.818 335.628 113.864C335.628 119.91 340.53 124.812 346.576 124.812Z" fill="white"/>
<path d="M456.937 124.812C462.983 124.812 467.885 119.91 467.885 113.864C467.885 107.818 462.983 102.916 456.937 102.916C450.89 102.916 445.989 107.818 445.989 113.864C445.989 119.91 450.89 124.812 456.937 124.812Z" fill="white"/>
<path d="M567.297 124.812C573.343 124.812 578.245 119.91 578.245 113.864C578.245 107.818 573.343 102.916 567.297 102.916C561.25 102.916 556.349 107.818 556.349 113.864C556.349 119.91 561.25 124.812 567.297 124.812Z" fill="white"/>
<path d="M677.658 124.812C683.704 124.812 688.606 119.91 688.606 113.864C688.606 107.818 683.704 102.916 677.658 102.916C671.612 102.916 666.71 107.818 666.71 113.864C666.71 119.91 671.612 124.812 677.658 124.812Z" fill="white"/>
<path d="M788.019 124.812C794.065 124.812 798.967 119.91 798.967 113.864C798.967 107.818 794.065 102.916 788.019 102.916C781.972 102.916 777.071 107.818 777.071 113.864C777.071 119.91 781.972 124.812 788.019 124.812Z" fill="white"/>
<path d="M898.38 124.812C904.426 124.812 909.328 119.91 909.328 113.864C909.328 107.818 904.426 102.916 898.38 102.916C892.333 102.916 887.432 107.818 887.432 113.864C887.432 119.91 892.333 124.812 898.38 124.812Z" fill="white"/>
<path d="M1008.74 124.812C1014.79 124.812 1019.69 119.91 1019.69 113.864C1019.69 107.818 1014.79 102.916 1008.74 102.916C1002.69 102.916 997.792 107.818 997.792 113.864C997.792 119.91 1002.69 124.812 1008.74 124.812Z" fill="white"/>
<path d="M1119.1 124.812C1125.15 124.812 1130.05 119.91 1130.05 113.864C1130.05 107.818 1125.15 102.916 1119.1 102.916C1113.05 102.916 1108.15 107.818 1108.15 113.864C1108.15 119.91 1113.05 124.812 1119.1 124.812Z" fill="white"/>
<path d="M1229.46 124.812C1235.51 124.812 1240.41 119.91 1240.41 113.864C1240.41 107.818 1235.51 102.916 1229.46 102.916C1223.42 102.916 1218.51 107.818 1218.51 113.864C1218.51 119.91 1223.42 124.812 1229.46 124.812Z" fill="white"/>
<path d="M1339.82 124.812C1345.87 124.812 1350.77 119.91 1350.77 113.864C1350.77 107.818 1345.87 102.916 1339.82 102.916C1333.78 102.916 1328.87 107.818 1328.87 113.864C1328.87 119.91 1333.78 124.812 1339.82 124.812Z" fill="white"/>
<path d="M1450.18 124.812C1456.23 124.812 1461.13 119.91 1461.13 113.864C1461.13 107.818 1456.23 102.916 1450.18 102.916C1444.14 102.916 1439.23 107.818 1439.23 113.864C1439.23 119.91 1444.14 124.812 1450.18 124.812Z" fill="white"/>
<path d="M1560.54 124.812C1566.59 124.812 1571.49 119.91 1571.49 113.864C1571.49 107.818 1566.59 102.916 1560.54 102.916C1554.5 102.916 1549.6 107.818 1549.6 113.864C1549.6 119.91 1554.5 124.812 1560.54 124.812Z" fill="white"/>
<path d="M1670.9 124.812C1676.95 124.812 1681.85 119.91 1681.85 113.864C1681.85 107.818 1676.95 102.916 1670.9 102.916C1664.86 102.916 1659.96 107.818 1659.96 113.864C1659.96 119.91 1664.86 124.812 1670.9 124.812Z" fill="white"/>
<path d="M1781.27 124.812C1787.31 124.812 1792.21 119.91 1792.21 113.864C1792.21 107.818 1787.31 102.916 1781.27 102.916C1775.22 102.916 1770.32 107.818 1770.32 113.864C1770.32 119.91 1775.22 124.812 1781.27 124.812Z" fill="white"/>
<path d="M1891.63 124.812C1897.67 124.812 1902.57 119.91 1902.57 113.864C1902.57 107.818 1897.67 102.916 1891.63 102.916C1885.58 102.916 1880.68 107.818 1880.68 113.864C1880.68 119.91 1885.58 124.812 1891.63 124.812Z" fill="white"/>
<path d="M15.4939 227.728C21.5403 227.728 26.4419 222.826 26.4419 216.78C26.4419 210.734 21.5403 205.832 15.4939 205.832C9.44748 205.832 4.5459 210.734 4.5459 216.78C4.5459 222.826 9.44748 227.728 15.4939 227.728Z" fill="white"/>
<path d="M125.854 227.728C131.9 227.728 136.802 222.826 136.802 216.78C136.802 210.734 131.9 205.832 125.854 205.832C119.808 205.832 114.906 210.734 114.906 216.78C114.906 222.826 119.808 227.728 125.854 227.728Z" fill="white"/>
<path d="M236.215 227.728C242.261 227.728 247.163 222.826 247.163 216.78C247.163 210.734 242.261 205.832 236.215 205.832C230.168 205.832 225.267 210.734 225.267 216.78C225.267 222.826 230.168 227.728 236.215 227.728Z" fill="white"/>
<path d="M346.576 227.728C352.622 227.728 357.524 222.826 357.524 216.78C357.524 210.734 352.622 205.832 346.576 205.832C340.53 205.832 335.628 210.734 335.628 216.78C335.628 222.826 340.53 227.728 346.576 227.728Z" fill="white"/>
<path d="M456.937 227.728C462.983 227.728 467.885 222.826 467.885 216.78C467.885 210.734 462.983 205.832 456.937 205.832C450.89 205.832 445.989 210.734 445.989 216.78C445.989 222.826 450.89 227.728 456.937 227.728Z" fill="white"/>
<path d="M567.297 227.728C573.343 227.728 578.245 222.826 578.245 216.78C578.245 210.734 573.343 205.832 567.297 205.832C561.25 205.832 556.349 210.734 556.349 216.78C556.349 222.826 561.25 227.728 567.297 227.728Z" fill="white"/>
<path d="M677.658 227.728C683.704 227.728 688.606 222.826 688.606 216.78C688.606 210.734 683.704 205.832 677.658 205.832C671.612 205.832 666.71 210.734 666.71 216.78C666.71 222.826 671.612 227.728 677.658 227.728Z" fill="white"/>
<path d="M788.019 227.728C794.065 227.728 798.967 222.826 798.967 216.78C798.967 210.734 794.065 205.832 788.019 205.832C781.972 205.832 777.071 210.734 777.071 216.78C777.071 222.826 781.972 227.728 788.019 227.728Z" fill="white"/>
<path d="M898.38 227.728C904.426 227.728 909.328 222.826 909.328 216.78C909.328 210.734 904.426 205.832 898.38 205.832C892.333 205.832 887.432 210.734 887.432 216.78C887.432 222.826 892.333 227.728 898.38 227.728Z" fill="white"/>
<path d="M1008.74 227.728C1014.79 227.728 1019.69 222.826 1019.69 216.78C1019.69 210.734 1014.79 205.832 1008.74 205.832C1002.69 205.832 997.792 210.734 997.792 216.78C997.792 222.826 1002.69 227.728 1008.74 227.728Z" fill="white"/>
<path d="M1119.1 227.728C1125.15 227.728 1130.05 222.826 1130.05 216.78C1130.05 210.734 1125.15 205.832 1119.1 205.832C1113.05 205.832 1108.15 210.734 1108.15 216.78C1108.15 222.826 1113.05 227.728 1119.1 227.728Z" fill="white"/>
<path d="M1229.46 227.728C1235.51 227.728 1240.41 222.826 1240.41 216.78C1240.41 210.734 1235.51 205.832 1229.46 205.832C1223.42 205.832 1218.51 210.734 1218.51 216.78C1218.51 222.826 1223.42 227.728 1229.46 227.728Z" fill="white"/>
<path d="M1339.82 227.728C1345.87 227.728 1350.77 222.826 1350.77 216.78C1350.77 210.734 1345.87 205.832 1339.82 205.832C1333.78 205.832 1328.87 210.734 1328.87 216.78C1328.87 222.826 1333.78 227.728 1339.82 227.728Z" fill="white"/>
<path d="M1450.18 227.728C1456.23 227.728 1461.13 222.826 1461.13 216.78C1461.13 210.734 1456.23 205.832 1450.18 205.832C1444.14 205.832 1439.23 210.734 1439.23 216.78C1439.23 222.826 1444.14 227.728 1450.18 227.728Z" fill="white"/>
<path d="M1560.54 227.728C1566.59 227.728 1571.49 222.826 1571.49 216.78C1571.49 210.734 1566.59 205.832 1560.54 205.832C1554.5 205.832 1549.6 210.734 1549.6 216.78C1549.6 222.826 1554.5 227.728 1560.54 227.728Z" fill="white"/>
<path d="M1670.9 227.728C1676.95 227.728 1681.85 222.826 1681.85 216.78C1681.85 210.734 1676.95 205.832 1670.9 205.832C1664.86 205.832 1659.96 210.734 1659.96 216.78C1659.96 222.826 1664.86 227.728 1670.9 227.728Z" fill="white"/>
<path d="M1781.27 227.728C1787.31 227.728 1792.21 222.826 1792.21 216.78C1792.21 210.734 1787.31 205.832 1781.27 205.832C1775.22 205.832 1770.32 210.734 1770.32 216.78C1770.32 222.826 1775.22 227.728 1781.27 227.728Z" fill="white"/>
<path d="M1891.63 227.728C1897.67 227.728 1902.57 222.826 1902.57 216.78C1902.57 210.734 1897.67 205.832 1891.63 205.832C1885.58 205.832 1880.68 210.734 1880.68 216.78C1880.68 222.826 1885.58 227.728 1891.63 227.728Z" fill="white"/>
<path d="M26.1322 322.232C27.5216 316.348 23.8778 310.451 17.9934 309.062C12.1091 307.672 6.21244 311.316 4.82298 317.2C3.43351 323.085 7.07735 328.981 12.9617 330.371C18.8461 331.76 24.7427 328.116 26.1322 322.232Z" fill="white"/>
<path d="M130.089 329.785C135.669 327.455 138.304 321.043 135.975 315.463C133.645 309.884 127.233 307.249 121.653 309.579C116.072 311.909 113.437 318.321 115.767 323.901C118.097 329.48 124.509 332.115 130.089 329.785Z" fill="white"/>
<path d="M246.878 322.207C248.26 316.321 244.61 310.428 238.724 309.045C232.837 307.663 226.945 311.313 225.562 317.2C224.179 323.086 227.83 328.978 233.716 330.361C239.602 331.744 245.495 328.093 246.878 322.207Z" fill="white"/>
<path d="M350.808 329.774C356.388 327.444 359.023 321.032 356.694 315.452C354.364 309.872 347.952 307.238 342.372 309.568C336.792 311.898 334.157 318.31 336.486 323.889C338.816 329.469 345.228 332.103 350.808 329.774Z" fill="white"/>
<path d="M461.168 329.768C466.748 327.438 469.383 321.026 467.053 315.447C464.724 309.867 458.312 307.233 452.731 309.563C447.151 311.892 444.516 318.304 446.846 323.884C449.176 329.464 455.588 332.098 461.168 329.768Z" fill="white"/>
<path d="M571.527 329.763C577.107 327.433 579.742 321.021 577.412 315.441C575.082 309.862 568.67 307.227 563.09 309.557C557.51 311.887 554.875 318.299 557.205 323.879C559.534 329.458 565.946 332.093 571.527 329.763Z" fill="white"/>
<path d="M681.886 329.757C687.467 327.428 690.102 321.016 687.772 315.436C685.442 309.856 679.03 307.222 673.45 309.552C667.87 311.882 665.235 318.294 667.564 323.873C669.894 329.453 676.306 332.087 681.886 329.757Z" fill="white"/>
<path d="M792.246 329.752C797.826 327.422 800.461 321.01 798.132 315.431C795.802 309.851 789.39 307.217 783.81 309.546C778.229 311.876 775.594 318.288 777.924 323.868C780.254 329.448 786.666 332.082 792.246 329.752Z" fill="white"/>
<path d="M902.606 329.747C908.186 327.417 910.821 321.005 908.491 315.425C906.161 309.846 899.749 307.211 894.169 309.541C888.589 311.871 885.954 318.283 888.284 323.863C890.613 329.442 897.026 332.077 902.606 329.747Z" fill="white"/>
<path d="M1012.96 329.799C1018.54 327.485 1021.2 321.081 1018.88 315.494C1016.57 309.908 1010.16 307.255 1004.58 309.57C998.991 311.884 996.338 318.288 998.652 323.875C1000.97 329.461 1007.37 332.113 1012.96 329.799Z" fill="white"/>
<path d="M1123.32 329.797C1128.91 327.483 1131.56 321.079 1129.25 315.492C1126.93 309.906 1120.53 307.253 1114.94 309.568C1109.35 311.882 1106.7 318.286 1109.02 323.873C1111.33 329.459 1117.73 332.112 1123.32 329.797Z" fill="white"/>
<path d="M1233.68 329.795C1239.27 327.481 1241.92 321.077 1239.61 315.49C1237.3 309.904 1230.89 307.252 1225.3 309.566C1219.72 311.88 1217.06 318.284 1219.38 323.871C1221.69 329.457 1228.1 332.11 1233.68 329.795Z" fill="white"/>
<path d="M1344.05 329.793C1349.63 327.479 1352.29 321.075 1349.97 315.488C1347.66 309.902 1341.25 307.25 1335.67 309.564C1330.08 311.878 1327.43 318.282 1329.74 323.869C1332.06 329.455 1338.46 332.108 1344.05 329.793Z" fill="white"/>
<path d="M1454.41 329.792C1460 327.478 1462.65 321.073 1460.34 315.487C1458.02 309.901 1451.62 307.248 1446.03 309.562C1440.44 311.876 1437.79 318.281 1440.1 323.867C1442.42 329.454 1448.82 332.106 1454.41 329.792Z" fill="white"/>
<path d="M1564.77 329.79C1570.36 327.476 1573.01 321.071 1570.7 315.485C1568.38 309.899 1561.98 307.246 1556.39 309.56C1550.81 311.874 1548.15 318.279 1550.47 323.865C1552.78 329.452 1559.19 332.104 1564.77 329.79Z" fill="white"/>
<path d="M1678.63 327.445C1682.91 323.17 1682.91 316.238 1678.63 311.962C1674.36 307.687 1667.42 307.687 1663.15 311.962C1658.87 316.238 1658.87 323.17 1663.15 327.445C1667.42 331.72 1674.36 331.72 1678.63 327.445Z" fill="white"/>
<path d="M1785.5 329.786C1791.09 327.472 1793.74 321.067 1791.43 315.481C1789.11 309.895 1782.71 307.242 1777.12 309.556C1771.53 311.871 1768.88 318.275 1771.19 323.861C1773.51 329.448 1779.91 332.1 1785.5 329.786Z" fill="white"/>
<path d="M1899.35 327.447C1903.63 323.171 1903.63 316.24 1899.35 311.964C1895.08 307.689 1888.14 307.689 1883.87 311.964C1879.59 316.24 1879.59 323.171 1883.87 327.447C1888.14 331.722 1895.08 331.722 1899.35 327.447Z" fill="white"/>
<path d="M15.4939 433.559C21.5403 433.559 26.4419 428.657 26.4419 422.611C26.4419 416.565 21.5403 411.663 15.4939 411.663C9.44748 411.663 4.5459 416.565 4.5459 422.611C4.5459 428.657 9.44748 433.559 15.4939 433.559Z" fill="white"/>
<path d="M125.854 433.559C131.9 433.559 136.802 428.657 136.802 422.611C136.802 416.565 131.9 411.663 125.854 411.663C119.808 411.663 114.906 416.565 114.906 422.611C114.906 428.657 119.808 433.559 125.854 433.559Z" fill="white"/>
<path d="M236.215 433.559C242.261 433.559 247.163 428.657 247.163 422.611C247.163 416.565 242.261 411.663 236.215 411.663C230.168 411.663 225.267 416.565 225.267 422.611C225.267 428.657 230.168 433.559 236.215 433.559Z" fill="white"/>
<path d="M346.576 433.559C352.622 433.559 357.524 428.657 357.524 422.611C357.524 416.565 352.622 411.663 346.576 411.663C340.53 411.663 335.628 416.565 335.628 422.611C335.628 428.657 340.53 433.559 346.576 433.559Z" fill="white"/>
<path d="M456.937 433.559C462.983 433.559 467.885 428.657 467.885 422.611C467.885 416.565 462.983 411.663 456.937 411.663C450.89 411.663 445.989 416.565 445.989 422.611C445.989 428.657 450.89 433.559 456.937 433.559Z" fill="white"/>
<path d="M567.297 433.559C573.343 433.559 578.245 428.657 578.245 422.611C578.245 416.565 573.343 411.663 567.297 411.663C561.25 411.663 556.349 416.565 556.349 422.611C556.349 428.657 561.25 433.559 567.297 433.559Z" fill="white"/>
<path d="M677.658 433.559C683.704 433.559 688.606 428.657 688.606 422.611C688.606 416.565 683.704 411.663 677.658 411.663C671.612 411.663 666.71 416.565 666.71 422.611C666.71 428.657 671.612 433.559 677.658 433.559Z" fill="white"/>
<path d="M788.019 433.559C794.065 433.559 798.967 428.657 798.967 422.611C798.967 416.565 794.065 411.663 788.019 411.663C781.972 411.663 777.071 416.565 777.071 422.611C777.071 428.657 781.972 433.559 788.019 433.559Z" fill="white"/>
<path d="M898.38 433.559C904.426 433.559 909.328 428.657 909.328 422.611C909.328 416.565 904.426 411.663 898.38 411.663C892.333 411.663 887.432 416.565 887.432 422.611C887.432 428.657 892.333 433.559 898.38 433.559Z" fill="white"/>
<path d="M1008.74 433.559C1014.79 433.559 1019.69 428.657 1019.69 422.611C1019.69 416.565 1014.79 411.663 1008.74 411.663C1002.69 411.663 997.792 416.565 997.792 422.611C997.792 428.657 1002.69 433.559 1008.74 433.559Z" fill="white"/>
<path d="M1119.1 433.559C1125.15 433.559 1130.05 428.657 1130.05 422.611C1130.05 416.565 1125.15 411.663 1119.1 411.663C1113.05 411.663 1108.15 416.565 1108.15 422.611C1108.15 428.657 1113.05 433.559 1119.1 433.559Z" fill="white"/>
<path d="M1229.46 433.559C1235.51 433.559 1240.41 428.657 1240.41 422.611C1240.41 416.565 1235.51 411.663 1229.46 411.663C1223.42 411.663 1218.51 416.565 1218.51 422.611C1218.51 428.657 1223.42 433.559 1229.46 433.559Z" fill="white"/>
<path d="M1339.82 433.559C1345.87 433.559 1350.77 428.657 1350.77 422.611C1350.77 416.565 1345.87 411.663 1339.82 411.663C1333.78 411.663 1328.87 416.565 1328.87 422.611C1328.87 428.657 1333.78 433.559 1339.82 433.559Z" fill="white"/>
<path d="M1450.18 433.559C1456.23 433.559 1461.13 428.657 1461.13 422.611C1461.13 416.565 1456.23 411.663 1450.18 411.663C1444.14 411.663 1439.23 416.565 1439.23 422.611C1439.23 428.657 1444.14 433.559 1450.18 433.559Z" fill="white"/>
<path d="M1560.54 433.559C1566.59 433.559 1571.49 428.657 1571.49 422.611C1571.49 416.565 1566.59 411.663 1560.54 411.663C1554.5 411.663 1549.6 416.565 1549.6 422.611C1549.6 428.657 1554.5 433.559 1560.54 433.559Z" fill="white"/>
<path d="M1670.9 433.559C1676.95 433.559 1681.85 428.657 1681.85 422.611C1681.85 416.565 1676.95 411.663 1670.9 411.663C1664.86 411.663 1659.96 416.565 1659.96 422.611C1659.96 428.657 1664.86 433.559 1670.9 433.559Z" fill="white"/>
<path d="M1781.27 433.559C1787.31 433.559 1792.21 428.657 1792.21 422.611C1792.21 416.565 1787.31 411.663 1781.27 411.663C1775.22 411.663 1770.32 416.565 1770.32 422.611C1770.32 428.657 1775.22 433.559 1781.27 433.559Z" fill="white"/>
<path d="M1891.63 433.559C1897.67 433.559 1902.57 428.657 1902.57 422.611C1902.57 416.565 1897.67 411.663 1891.63 411.663C1885.58 411.663 1880.68 416.565 1880.68 422.611C1880.68 428.657 1885.58 433.559 1891.63 433.559Z" fill="white"/>
<path d="M15.4939 536.475C21.5403 536.475 26.4419 531.574 26.4419 525.527C26.4419 519.481 21.5403 514.579 15.4939 514.579C9.44748 514.579 4.5459 519.481 4.5459 525.527C4.5459 531.574 9.44748 536.475 15.4939 536.475Z" fill="white"/>
<path d="M125.854 536.475C131.9 536.475 136.802 531.574 136.802 525.527C136.802 519.481 131.9 514.579 125.854 514.579C119.808 514.579 114.906 519.481 114.906 525.527C114.906 531.574 119.808 536.475 125.854 536.475Z" fill="white"/>
<path d="M236.215 536.475C242.261 536.475 247.163 531.574 247.163 525.527C247.163 519.481 242.261 514.579 236.215 514.579C230.168 514.579 225.267 519.481 225.267 525.527C225.267 531.574 230.168 536.475 236.215 536.475Z" fill="white"/>
<path d="M346.576 536.475C352.622 536.475 357.524 531.574 357.524 525.527C357.524 519.481 352.622 514.579 346.576 514.579C340.53 514.579 335.628 519.481 335.628 525.527C335.628 531.574 340.53 536.475 346.576 536.475Z" fill="white"/>
<path d="M456.937 536.475C462.983 536.475 467.885 531.574 467.885 525.527C467.885 519.481 462.983 514.579 456.937 514.579C450.89 514.579 445.989 519.481 445.989 525.527C445.989 531.574 450.89 536.475 456.937 536.475Z" fill="white"/>
<path d="M567.297 536.475C573.343 536.475 578.245 531.574 578.245 525.527C578.245 519.481 573.343 514.579 567.297 514.579C561.25 514.579 556.349 519.481 556.349 525.527C556.349 531.574 561.25 536.475 567.297 536.475Z" fill="white"/>
<path d="M677.658 536.475C683.704 536.475 688.606 531.574 688.606 525.527C688.606 519.481 683.704 514.579 677.658 514.579C671.612 514.579 666.71 519.481 666.71 525.527C666.71 531.574 671.612 536.475 677.658 536.475Z" fill="white"/>
<path d="M788.019 536.475C794.065 536.475 798.967 531.574 798.967 525.527C798.967 519.481 794.065 514.579 788.019 514.579C781.972 514.579 777.071 519.481 777.071 525.527C777.071 531.574 781.972 536.475 788.019 536.475Z" fill="white"/>
<path d="M898.38 536.475C904.426 536.475 909.328 531.574 909.328 525.527C909.328 519.481 904.426 514.579 898.38 514.579C892.333 514.579 887.432 519.481 887.432 525.527C887.432 531.574 892.333 536.475 898.38 536.475Z" fill="white"/>
<path d="M1008.74 536.475C1014.79 536.475 1019.69 531.574 1019.69 525.527C1019.69 519.481 1014.79 514.579 1008.74 514.579C1002.69 514.579 997.792 519.481 997.792 525.527C997.792 531.574 1002.69 536.475 1008.74 536.475Z" fill="white"/>
<path d="M1119.1 536.475C1125.15 536.475 1130.05 531.574 1130.05 525.527C1130.05 519.481 1125.15 514.579 1119.1 514.579C1113.05 514.579 1108.15 519.481 1108.15 525.527C1108.15 531.574 1113.05 536.475 1119.1 536.475Z" fill="white"/>
<path d="M1229.46 536.475C1235.51 536.475 1240.41 531.574 1240.41 525.527C1240.41 519.481 1235.51 514.579 1229.46 514.579C1223.42 514.579 1218.51 519.481 1218.51 525.527C1218.51 531.574 1223.42 536.475 1229.46 536.475Z" fill="white"/>
<path d="M1339.82 536.475C1345.87 536.475 1350.77 531.574 1350.77 525.527C1350.77 519.481 1345.87 514.579 1339.82 514.579C1333.78 514.579 1328.87 519.481 1328.87 525.527C1328.87 531.574 1333.78 536.475 1339.82 536.475Z" fill="white"/>
<path d="M1450.18 536.475C1456.23 536.475 1461.13 531.574 1461.13 525.527C1461.13 519.481 1456.23 514.579 1450.18 514.579C1444.14 514.579 1439.23 519.481 1439.23 525.527C1439.23 531.574 1444.14 536.475 1450.18 536.475Z" fill="white"/>
<path d="M1560.54 536.475C1566.59 536.475 1571.49 531.574 1571.49 525.527C1571.49 519.481 1566.59 514.579 1560.54 514.579C1554.5 514.579 1549.6 519.481 1549.6 525.527C1549.6 531.574 1554.5 536.475 1560.54 536.475Z" fill="white"/>
<path d="M1670.9 536.475C1676.95 536.475 1681.85 531.574 1681.85 525.527C1681.85 519.481 1676.95 514.579 1670.9 514.579C1664.86 514.579 1659.96 519.481 1659.96 525.527C1659.96 531.574 1664.86 536.475 1670.9 536.475Z" fill="white"/>
<path d="M1781.27 536.475C1787.31 536.475 1792.21 531.574 1792.21 525.527C1792.21 519.481 1787.31 514.579 1781.27 514.579C1775.22 514.579 1770.32 519.481 1770.32 525.527C1770.32 531.574 1775.22 536.475 1781.27 536.475Z" fill="white"/>
<path d="M1891.63 536.475C1897.67 536.475 1902.57 531.574 1902.57 525.527C1902.57 519.481 1897.67 514.579 1891.63 514.579C1885.58 514.579 1880.68 519.481 1880.68 525.527C1880.68 531.574 1885.58 536.475 1891.63 536.475Z" fill="white"/>
<path d="M15.4939 639.391C21.5403 639.391 26.4419 634.49 26.4419 628.443C26.4419 622.397 21.5403 617.495 15.4939 617.495C9.44748 617.495 4.5459 622.397 4.5459 628.443C4.5459 634.49 9.44748 639.391 15.4939 639.391Z" fill="white"/>
<path d="M125.854 639.391C131.9 639.391 136.802 634.49 136.802 628.443C136.802 622.397 131.9 617.495 125.854 617.495C119.808 617.495 114.906 622.397 114.906 628.443C114.906 634.49 119.808 639.391 125.854 639.391Z" fill="white"/>
<path d="M236.215 639.391C242.261 639.391 247.163 634.49 247.163 628.443C247.163 622.397 242.261 617.495 236.215 617.495C230.168 617.495 225.267 622.397 225.267 628.443C225.267 634.49 230.168 639.391 236.215 639.391Z" fill="white"/>
<path d="M346.576 639.391C352.622 639.391 357.524 634.49 357.524 628.443C357.524 622.397 352.622 617.495 346.576 617.495C340.53 617.495 335.628 622.397 335.628 628.443C335.628 634.49 340.53 639.391 346.576 639.391Z" fill="white"/>
<path d="M456.937 639.391C462.983 639.391 467.885 634.49 467.885 628.443C467.885 622.397 462.983 617.495 456.937 617.495C450.89 617.495 445.989 622.397 445.989 628.443C445.989 634.49 450.89 639.391 456.937 639.391Z" fill="white"/>
<path d="M567.297 639.391C573.343 639.391 578.245 634.49 578.245 628.443C578.245 622.397 573.343 617.495 567.297 617.495C561.25 617.495 556.349 622.397 556.349 628.443C556.349 634.49 561.25 639.391 567.297 639.391Z" fill="white"/>
<path d="M677.658 639.391C683.704 639.391 688.606 634.49 688.606 628.443C688.606 622.397 683.704 617.495 677.658 617.495C671.612 617.495 666.71 622.397 666.71 628.443C666.71 634.49 671.612 639.391 677.658 639.391Z" fill="white"/>
<path d="M788.019 639.391C794.065 639.391 798.967 634.49 798.967 628.443C798.967 622.397 794.065 617.495 788.019 617.495C781.972 617.495 777.071 622.397 777.071 628.443C777.071 634.49 781.972 639.391 788.019 639.391Z" fill="white"/>
<path d="M898.38 639.391C904.426 639.391 909.328 634.49 909.328 628.443C909.328 622.397 904.426 617.495 898.38 617.495C892.333 617.495 887.432 622.397 887.432 628.443C887.432 634.49 892.333 639.391 898.38 639.391Z" fill="white"/>
<path d="M1008.74 639.391C1014.79 639.391 1019.69 634.49 1019.69 628.443C1019.69 622.397 1014.79 617.495 1008.74 617.495C1002.69 617.495 997.792 622.397 997.792 628.443C997.792 634.49 1002.69 639.391 1008.74 639.391Z" fill="white"/>
<path d="M1119.1 639.391C1125.15 639.391 1130.05 634.49 1130.05 628.443C1130.05 622.397 1125.15 617.495 1119.1 617.495C1113.05 617.495 1108.15 622.397 1108.15 628.443C1108.15 634.49 1113.05 639.391 1119.1 639.391Z" fill="white"/>
<path d="M1229.46 639.391C1235.51 639.391 1240.41 634.49 1240.41 628.443C1240.41 622.397 1235.51 617.495 1229.46 617.495C1223.42 617.495 1218.51 622.397 1218.51 628.443C1218.51 634.49 1223.42 639.391 1229.46 639.391Z" fill="white"/>
<path d="M1339.82 639.391C1345.87 639.391 1350.77 634.49 1350.77 628.443C1350.77 622.397 1345.87 617.495 1339.82 617.495C1333.78 617.495 1328.87 622.397 1328.87 628.443C1328.87 634.49 1333.78 639.391 1339.82 639.391Z" fill="white"/>
<path d="M1450.18 639.391C1456.23 639.391 1461.13 634.49 1461.13 628.443C1461.13 622.397 1456.23 617.495 1450.18 617.495C1444.14 617.495 1439.23 622.397 1439.23 628.443C1439.23 634.49 1444.14 639.391 1450.18 639.391Z" fill="white"/>
<path d="M1560.54 639.391C1566.59 639.391 1571.49 634.49 1571.49 628.443C1571.49 622.397 1566.59 617.495 1560.54 617.495C1554.5 617.495 1549.6 622.397 1549.6 628.443C1549.6 634.49 1554.5 639.391 1560.54 639.391Z" fill="white"/>
<path d="M1670.9 639.391C1676.95 639.391 1681.85 634.49 1681.85 628.443C1681.85 622.397 1676.95 617.495 1670.9 617.495C1664.86 617.495 1659.96 622.397 1659.96 628.443C1659.96 634.49 1664.86 639.391 1670.9 639.391Z" fill="white"/>
<path d="M1781.27 639.391C1787.31 639.391 1792.21 634.49 1792.21 628.443C1792.21 622.397 1787.31 617.495 1781.27 617.495C1775.22 617.495 1770.32 622.397 1770.32 628.443C1770.32 634.49 1775.22 639.391 1781.27 639.391Z" fill="white"/>
<path d="M1891.63 639.391C1897.67 639.391 1902.57 634.49 1902.57 628.443C1902.57 622.397 1897.67 617.495 1891.63 617.495C1885.58 617.495 1880.68 622.397 1880.68 628.443C1880.68 634.49 1885.58 639.391 1891.63 639.391Z" fill="white"/>
<path d="M26.112 733.915C27.5014 728.031 23.8576 722.134 17.9732 720.745C12.0888 719.355 6.19218 722.999 4.80272 728.883C3.41325 734.768 7.05715 740.664 12.9415 742.054C18.8259 743.443 24.7225 739.8 26.112 733.915Z" fill="white"/>
<path d="M130.109 741.443C135.689 739.113 138.324 732.701 135.995 727.122C133.665 721.542 127.253 718.908 121.673 721.237C116.092 723.567 113.457 729.979 115.787 735.559C118.117 741.139 124.529 743.773 130.109 741.443Z" fill="white"/>
<path d="M246.877 733.879C248.26 727.993 244.609 722.1 238.723 720.717C232.837 719.335 226.944 722.985 225.561 728.871C224.178 734.758 227.829 740.65 233.715 742.033C239.601 743.416 245.494 739.765 246.877 733.879Z" fill="white"/>
<path d="M350.829 741.432C356.409 739.102 359.044 732.691 356.714 727.111C354.384 721.531 347.972 718.897 342.392 721.227C336.812 723.557 334.177 729.969 336.507 735.548C338.836 741.128 345.248 743.762 350.829 741.432Z" fill="white"/>
<path d="M461.188 741.426C466.768 739.097 469.403 732.685 467.074 727.105C464.744 721.525 458.332 718.891 452.752 721.221C447.172 723.551 444.537 729.963 446.866 735.542C449.196 741.122 455.608 743.756 461.188 741.426Z" fill="white"/>
<path d="M571.547 741.422C577.127 739.092 579.762 732.68 577.433 727.1C575.103 721.521 568.691 718.886 563.111 721.216C557.53 723.546 554.895 729.958 557.225 735.537C559.555 741.117 565.967 743.752 571.547 741.422Z" fill="white"/>
<path d="M681.907 741.416C687.487 739.086 690.122 732.674 687.792 727.095C685.462 721.515 679.05 718.881 673.47 721.211C667.89 723.54 665.255 729.952 667.584 735.532C669.914 741.112 676.326 743.746 681.907 741.416Z" fill="white"/>
<path d="M792.266 741.41C797.846 739.08 800.482 732.669 798.152 727.089C795.822 721.509 789.41 718.875 783.83 721.205C778.25 723.535 775.615 729.947 777.944 735.526C780.274 741.106 786.686 743.74 792.266 741.41Z" fill="white"/>
<path d="M902.626 741.405C908.206 739.075 910.841 732.663 908.511 727.084C906.182 721.504 899.77 718.869 894.189 721.199C888.609 723.529 885.974 729.941 888.304 735.521C890.634 741.1 897.046 743.735 902.626 741.405Z" fill="white"/>
<path d="M1012.96 741.471C1018.55 739.157 1021.2 732.752 1018.89 727.166C1016.58 721.58 1010.17 718.927 1004.59 721.241C998.998 723.556 996.345 729.96 998.659 735.547C1000.97 741.133 1007.38 743.785 1012.96 741.471Z" fill="white"/>
<path d="M1123.33 741.469C1128.91 739.155 1131.57 732.751 1129.25 727.164C1126.94 721.578 1120.54 718.925 1114.95 721.24C1109.36 723.554 1106.71 729.958 1109.02 735.545C1111.34 741.131 1117.74 743.783 1123.33 741.469Z" fill="white"/>
<path d="M1233.69 741.467C1239.28 739.153 1241.93 732.749 1239.62 727.162C1237.3 721.576 1230.9 718.923 1225.31 721.238C1219.72 723.552 1217.07 729.956 1219.39 735.543C1221.7 741.129 1228.1 743.782 1233.69 741.467Z" fill="white"/>
<path d="M1344.05 741.465C1349.64 739.151 1352.29 732.747 1349.98 727.16C1347.67 721.574 1341.26 718.921 1335.67 721.236C1330.09 723.55 1327.43 729.954 1329.75 735.541C1332.06 741.127 1338.47 743.78 1344.05 741.465Z" fill="white"/>
<path d="M1454.42 741.463C1460 739.149 1462.66 732.745 1460.34 727.158C1458.03 721.572 1451.62 718.919 1446.04 721.234C1440.45 723.548 1437.8 729.952 1440.11 735.539C1442.43 741.125 1448.83 743.778 1454.42 741.463Z" fill="white"/>
<path d="M1564.78 741.461C1570.37 739.147 1573.02 732.743 1570.71 727.156C1568.39 721.57 1561.99 718.918 1556.4 721.232C1550.81 723.546 1548.16 729.951 1550.47 735.537C1552.79 741.123 1559.19 743.776 1564.78 741.461Z" fill="white"/>
<path d="M1678.63 739.106C1682.9 734.83 1682.9 727.898 1678.63 723.623C1674.35 719.348 1667.42 719.348 1663.15 723.623C1658.87 727.898 1658.87 734.83 1663.15 739.106C1667.42 743.381 1674.35 743.381 1678.63 739.106Z" fill="white"/>
<path d="M1785.51 741.458C1791.09 739.143 1793.75 732.739 1791.43 727.152C1789.12 721.566 1782.71 718.914 1777.13 721.228C1771.54 723.542 1768.89 729.947 1771.2 735.533C1773.51 741.119 1779.92 743.772 1785.51 741.458Z" fill="white"/>
<path d="M1899.35 739.108C1903.62 734.832 1903.62 727.9 1899.35 723.625C1895.07 719.35 1888.14 719.349 1883.87 723.625C1879.59 727.9 1879.59 734.832 1883.87 739.108C1888.14 743.383 1895.07 743.383 1899.35 739.108Z" fill="white"/>
<path d="M15.4939 845.222C21.5403 845.222 26.4419 840.321 26.4419 834.274C26.4419 828.228 21.5403 823.326 15.4939 823.326C9.44748 823.326 4.5459 828.228 4.5459 834.274C4.5459 840.321 9.44748 845.222 15.4939 845.222Z" fill="white"/>
<path d="M125.854 845.222C131.9 845.222 136.802 840.321 136.802 834.274C136.802 828.228 131.9 823.326 125.854 823.326C119.808 823.326 114.906 828.228 114.906 834.274C114.906 840.321 119.808 845.222 125.854 845.222Z" fill="white"/>
<path d="M236.215 845.222C242.261 845.222 247.163 840.321 247.163 834.274C247.163 828.228 242.261 823.326 236.215 823.326C230.168 823.326 225.267 828.228 225.267 834.274C225.267 840.321 230.168 845.222 236.215 845.222Z" fill="white"/>
<path d="M346.576 845.222C352.622 845.222 357.524 840.321 357.524 834.274C357.524 828.228 352.622 823.326 346.576 823.326C340.53 823.326 335.628 828.228 335.628 834.274C335.628 840.321 340.53 845.222 346.576 845.222Z" fill="white"/>
<path d="M456.937 845.222C462.983 845.222 467.885 840.321 467.885 834.274C467.885 828.228 462.983 823.326 456.937 823.326C450.89 823.326 445.989 828.228 445.989 834.274C445.989 840.321 450.89 845.222 456.937 845.222Z" fill="white"/>
<path d="M567.297 845.222C573.343 845.222 578.245 840.321 578.245 834.274C578.245 828.228 573.343 823.326 567.297 823.326C561.25 823.326 556.349 828.228 556.349 834.274C556.349 840.321 561.25 845.222 567.297 845.222Z" fill="white"/>
<path d="M677.658 845.222C683.704 845.222 688.606 840.321 688.606 834.274C688.606 828.228 683.704 823.326 677.658 823.326C671.612 823.326 666.71 828.228 666.71 834.274C666.71 840.321 671.612 845.222 677.658 845.222Z" fill="white"/>
<path d="M788.019 845.222C794.065 845.222 798.967 840.321 798.967 834.274C798.967 828.228 794.065 823.326 788.019 823.326C781.972 823.326 777.071 828.228 777.071 834.274C777.071 840.321 781.972 845.222 788.019 845.222Z" fill="white"/>
<path d="M898.38 845.222C904.426 845.222 909.328 840.321 909.328 834.274C909.328 828.228 904.426 823.326 898.38 823.326C892.333 823.326 887.432 828.228 887.432 834.274C887.432 840.321 892.333 845.222 898.38 845.222Z" fill="white"/>
<path d="M1008.74 845.222C1014.79 845.222 1019.69 840.321 1019.69 834.274C1019.69 828.228 1014.79 823.326 1008.74 823.326C1002.69 823.326 997.792 828.228 997.792 834.274C997.792 840.321 1002.69 845.222 1008.74 845.222Z" fill="white"/>
<path d="M1119.1 845.222C1125.15 845.222 1130.05 840.321 1130.05 834.274C1130.05 828.228 1125.15 823.326 1119.1 823.326C1113.05 823.326 1108.15 828.228 1108.15 834.274C1108.15 840.321 1113.05 845.222 1119.1 845.222Z" fill="white"/>
<path d="M1229.46 845.222C1235.51 845.222 1240.41 840.321 1240.41 834.274C1240.41 828.228 1235.51 823.326 1229.46 823.326C1223.42 823.326 1218.51 828.228 1218.51 834.274C1218.51 840.321 1223.42 845.222 1229.46 845.222Z" fill="white"/>
<path d="M1339.82 845.222C1345.87 845.222 1350.77 840.321 1350.77 834.274C1350.77 828.228 1345.87 823.326 1339.82 823.326C1333.78 823.326 1328.87 828.228 1328.87 834.274C1328.87 840.321 1333.78 845.222 1339.82 845.222Z" fill="white"/>
<path d="M1450.18 845.222C1456.23 845.222 1461.13 840.321 1461.13 834.274C1461.13 828.228 1456.23 823.326 1450.18 823.326C1444.14 823.326 1439.23 828.228 1439.23 834.274C1439.23 840.321 1444.14 845.222 1450.18 845.222Z" fill="white"/>
<path d="M1560.54 845.222C1566.59 845.222 1571.49 840.321 1571.49 834.274C1571.49 828.228 1566.59 823.326 1560.54 823.326C1554.5 823.326 1549.6 828.228 1549.6 834.274C1549.6 840.321 1554.5 845.222 1560.54 845.222Z" fill="white"/>
<path d="M1670.9 845.222C1676.95 845.222 1681.85 840.321 1681.85 834.274C1681.85 828.228 1676.95 823.326 1670.9 823.326C1664.86 823.326 1659.96 828.228 1659.96 834.274C1659.96 840.321 1664.86 845.222 1670.9 845.222Z" fill="white"/>
<path d="M1781.27 845.222C1787.31 845.222 1792.21 840.321 1792.21 834.274C1792.21 828.228 1787.31 823.326 1781.27 823.326C1775.22 823.326 1770.32 828.228 1770.32 834.274C1770.32 840.321 1775.22 845.222 1781.27 845.222Z" fill="white"/>
<path d="M1891.63 845.222C1897.67 845.222 1902.57 840.321 1902.57 834.274C1902.57 828.228 1897.67 823.326 1891.63 823.326C1885.58 823.326 1880.68 828.228 1880.68 834.274C1880.68 840.321 1885.58 845.222 1891.63 845.222Z" fill="white"/>
<path d="M15.4939 948.138C21.5403 948.138 26.4419 943.237 26.4419 937.19C26.4419 931.144 21.5403 926.242 15.4939 926.242C9.44748 926.242 4.5459 931.144 4.5459 937.19C4.5459 943.237 9.44748 948.138 15.4939 948.138Z" fill="white"/>
<path d="M125.854 948.138C131.9 948.138 136.802 943.237 136.802 937.19C136.802 931.144 131.9 926.242 125.854 926.242C119.808 926.242 114.906 931.144 114.906 937.19C114.906 943.237 119.808 948.138 125.854 948.138Z" fill="white"/>
<path d="M236.215 948.138C242.261 948.138 247.163 943.237 247.163 937.19C247.163 931.144 242.261 926.242 236.215 926.242C230.168 926.242 225.267 931.144 225.267 937.19C225.267 943.237 230.168 948.138 236.215 948.138Z" fill="white"/>
<path d="M346.576 948.138C352.622 948.138 357.524 943.237 357.524 937.19C357.524 931.144 352.622 926.242 346.576 926.242C340.53 926.242 335.628 931.144 335.628 937.19C335.628 943.237 340.53 948.138 346.576 948.138Z" fill="white"/>
<path d="M456.937 948.138C462.983 948.138 467.885 943.237 467.885 937.19C467.885 931.144 462.983 926.242 456.937 926.242C450.89 926.242 445.989 931.144 445.989 937.19C445.989 943.237 450.89 948.138 456.937 948.138Z" fill="white"/>
<path d="M567.297 948.138C573.343 948.138 578.245 943.237 578.245 937.19C578.245 931.144 573.343 926.242 567.297 926.242C561.25 926.242 556.349 931.144 556.349 937.19C556.349 943.237 561.25 948.138 567.297 948.138Z" fill="white"/>
<path d="M677.658 948.138C683.704 948.138 688.606 943.237 688.606 937.19C688.606 931.144 683.704 926.242 677.658 926.242C671.612 926.242 666.71 931.144 666.71 937.19C666.71 943.237 671.612 948.138 677.658 948.138Z" fill="white"/>
<path d="M788.019 948.138C794.065 948.138 798.967 943.237 798.967 937.19C798.967 931.144 794.065 926.242 788.019 926.242C781.972 926.242 777.071 931.144 777.071 937.19C777.071 943.237 781.972 948.138 788.019 948.138Z" fill="white"/>
<path d="M898.38 948.138C904.426 948.138 909.328 943.237 909.328 937.19C909.328 931.144 904.426 926.242 898.38 926.242C892.333 926.242 887.432 931.144 887.432 937.19C887.432 943.237 892.333 948.138 898.38 948.138Z" fill="white"/>
<path d="M1008.74 948.138C1014.79 948.138 1019.69 943.237 1019.69 937.19C1019.69 931.144 1014.79 926.242 1008.74 926.242C1002.69 926.242 997.792 931.144 997.792 937.19C997.792 943.237 1002.69 948.138 1008.74 948.138Z" fill="white"/>
<path d="M1119.1 948.138C1125.15 948.138 1130.05 943.237 1130.05 937.19C1130.05 931.144 1125.15 926.242 1119.1 926.242C1113.05 926.242 1108.15 931.144 1108.15 937.19C1108.15 943.237 1113.05 948.138 1119.1 948.138Z" fill="white"/>
<path d="M1229.46 948.138C1235.51 948.138 1240.41 943.237 1240.41 937.19C1240.41 931.144 1235.51 926.242 1229.46 926.242C1223.42 926.242 1218.51 931.144 1218.51 937.19C1218.51 943.237 1223.42 948.138 1229.46 948.138Z" fill="white"/>
<path d="M1339.82 948.138C1345.87 948.138 1350.77 943.237 1350.77 937.19C1350.77 931.144 1345.87 926.242 1339.82 926.242C1333.78 926.242 1328.87 931.144 1328.87 937.19C1328.87 943.237 1333.78 948.138 1339.82 948.138Z" fill="white"/>
<path d="M1450.18 948.138C1456.23 948.138 1461.13 943.237 1461.13 937.19C1461.13 931.144 1456.23 926.242 1450.18 926.242C1444.14 926.242 1439.23 931.144 1439.23 937.19C1439.23 943.237 1444.14 948.138 1450.18 948.138Z" fill="white"/>
<path d="M1560.54 948.138C1566.59 948.138 1571.49 943.237 1571.49 937.19C1571.49 931.144 1566.59 926.242 1560.54 926.242C1554.5 926.242 1549.6 931.144 1549.6 937.19C1549.6 943.237 1554.5 948.138 1560.54 948.138Z" fill="white"/>
<path d="M1670.9 948.138C1676.95 948.138 1681.85 943.237 1681.85 937.19C1681.85 931.144 1676.95 926.242 1670.9 926.242C1664.86 926.242 1659.96 931.144 1659.96 937.19C1659.96 943.237 1664.86 948.138 1670.9 948.138Z" fill="white"/>
<path d="M1781.27 948.138C1787.31 948.138 1792.21 943.237 1792.21 937.19C1792.21 931.144 1787.31 926.242 1781.27 926.242C1775.22 926.242 1770.32 931.144 1770.32 937.19C1770.32 943.237 1775.22 948.138 1781.27 948.138Z" fill="white"/>
<path d="M1891.63 948.138C1897.67 948.138 1902.57 943.237 1902.57 937.19C1902.57 931.144 1897.67 926.242 1891.63 926.242C1885.58 926.242 1880.68 931.144 1880.68 937.19C1880.68 943.237 1885.58 948.138 1891.63 948.138Z" fill="white"/>
<path d="M15.4939 1051.05C21.5403 1051.05 26.4419 1046.15 26.4419 1040.11C26.4419 1034.06 21.5403 1029.16 15.4939 1029.16C9.44748 1029.16 4.5459 1034.06 4.5459 1040.11C4.5459 1046.15 9.44748 1051.05 15.4939 1051.05Z" fill="white"/>
<path d="M125.854 1051.05C131.9 1051.05 136.802 1046.15 136.802 1040.11C136.802 1034.06 131.9 1029.16 125.854 1029.16C119.808 1029.16 114.906 1034.06 114.906 1040.11C114.906 1046.15 119.808 1051.05 125.854 1051.05Z" fill="white"/>
<path d="M236.215 1051.05C242.261 1051.05 247.163 1046.15 247.163 1040.11C247.163 1034.06 242.261 1029.16 236.215 1029.16C230.168 1029.16 225.267 1034.06 225.267 1040.11C225.267 1046.15 230.168 1051.05 236.215 1051.05Z" fill="white"/>
<path d="M346.576 1051.05C352.622 1051.05 357.524 1046.15 357.524 1040.11C357.524 1034.06 352.622 1029.16 346.576 1029.16C340.53 1029.16 335.628 1034.06 335.628 1040.11C335.628 1046.15 340.53 1051.05 346.576 1051.05Z" fill="white"/>
<path d="M456.937 1051.05C462.983 1051.05 467.885 1046.15 467.885 1040.11C467.885 1034.06 462.983 1029.16 456.937 1029.16C450.89 1029.16 445.989 1034.06 445.989 1040.11C445.989 1046.15 450.89 1051.05 456.937 1051.05Z" fill="white"/>
<path d="M567.297 1051.05C573.343 1051.05 578.245 1046.15 578.245 1040.11C578.245 1034.06 573.343 1029.16 567.297 1029.16C561.25 1029.16 556.349 1034.06 556.349 1040.11C556.349 1046.15 561.25 1051.05 567.297 1051.05Z" fill="white"/>
<path d="M677.658 1051.05C683.704 1051.05 688.606 1046.15 688.606 1040.11C688.606 1034.06 683.704 1029.16 677.658 1029.16C671.612 1029.16 666.71 1034.06 666.71 1040.11C666.71 1046.15 671.612 1051.05 677.658 1051.05Z" fill="white"/>
<path d="M788.019 1051.05C794.065 1051.05 798.967 1046.15 798.967 1040.11C798.967 1034.06 794.065 1029.16 788.019 1029.16C781.972 1029.16 777.071 1034.06 777.071 1040.11C777.071 1046.15 781.972 1051.05 788.019 1051.05Z" fill="white"/>
<path d="M898.38 1051.05C904.426 1051.05 909.328 1046.15 909.328 1040.11C909.328 1034.06 904.426 1029.16 898.38 1029.16C892.333 1029.16 887.432 1034.06 887.432 1040.11C887.432 1046.15 892.333 1051.05 898.38 1051.05Z" fill="white"/>
<path d="M1008.74 1051.05C1014.79 1051.05 1019.69 1046.15 1019.69 1040.11C1019.69 1034.06 1014.79 1029.16 1008.74 1029.16C1002.69 1029.16 997.792 1034.06 997.792 1040.11C997.792 1046.15 1002.69 1051.05 1008.74 1051.05Z" fill="white"/>
<path d="M1119.1 1051.05C1125.15 1051.05 1130.05 1046.15 1130.05 1040.11C1130.05 1034.06 1125.15 1029.16 1119.1 1029.16C1113.05 1029.16 1108.15 1034.06 1108.15 1040.11C1108.15 1046.15 1113.05 1051.05 1119.1 1051.05Z" fill="white"/>
<path d="M1229.46 1051.05C1235.51 1051.05 1240.41 1046.15 1240.41 1040.11C1240.41 1034.06 1235.51 1029.16 1229.46 1029.16C1223.42 1029.16 1218.51 1034.06 1218.51 1040.11C1218.51 1046.15 1223.42 1051.05 1229.46 1051.05Z" fill="white"/>
<path d="M1339.82 1051.05C1345.87 1051.05 1350.77 1046.15 1350.77 1040.11C1350.77 1034.06 1345.87 1029.16 1339.82 1029.16C1333.78 1029.16 1328.87 1034.06 1328.87 1040.11C1328.87 1046.15 1333.78 1051.05 1339.82 1051.05Z" fill="white"/>
<path d="M1450.18 1051.05C1456.23 1051.05 1461.13 1046.15 1461.13 1040.11C1461.13 1034.06 1456.23 1029.16 1450.18 1029.16C1444.14 1029.16 1439.23 1034.06 1439.23 1040.11C1439.23 1046.15 1444.14 1051.05 1450.18 1051.05Z" fill="white"/>
<path d="M1560.54 1051.05C1566.59 1051.05 1571.49 1046.15 1571.49 1040.11C1571.49 1034.06 1566.59 1029.16 1560.54 1029.16C1554.5 1029.16 1549.6 1034.06 1549.6 1040.11C1549.6 1046.15 1554.5 1051.05 1560.54 1051.05Z" fill="white"/>
<path d="M1670.9 1051.05C1676.95 1051.05 1681.85 1046.15 1681.85 1040.11C1681.85 1034.06 1676.95 1029.16 1670.9 1029.16C1664.86 1029.16 1659.96 1034.06 1659.96 1040.11C1659.96 1046.15 1664.86 1051.05 1670.9 1051.05Z" fill="white"/>
<path d="M1781.27 1051.05C1787.31 1051.05 1792.21 1046.15 1792.21 1040.11C1792.21 1034.06 1787.31 1029.16 1781.27 1029.16C1775.22 1029.16 1770.32 1034.06 1770.32 1040.11C1770.32 1046.15 1775.22 1051.05 1781.27 1051.05Z" fill="white"/>
<path d="M1891.63 1051.05C1897.67 1051.05 1902.57 1046.15 1902.57 1040.11C1902.57 1034.06 1897.67 1029.16 1891.63 1029.16C1885.58 1029.16 1880.68 1034.06 1880.68 1040.11C1880.68 1046.15 1885.58 1051.05 1891.63 1051.05Z" fill="white"/>
<path d="M23.2269 1150.76C27.5023 1146.48 27.5023 1139.55 23.2269 1135.27C18.9515 1131 12.0197 1131 7.74426 1135.27C3.46884 1139.55 3.46884 1146.48 7.74426 1150.76C12.0197 1155.03 18.9515 1155.03 23.2269 1150.76Z" fill="white"/>
<path d="M136.658 1144.74C137.63 1138.78 133.579 1133.15 127.611 1132.18C121.642 1131.21 116.016 1135.26 115.045 1141.23C114.073 1147.19 118.124 1152.82 124.092 1153.79C130.06 1154.76 135.686 1150.71 136.658 1144.74Z" fill="white"/>
<path d="M243.947 1150.76C248.222 1146.48 248.222 1139.55 243.947 1135.27C239.671 1131 232.739 1131 228.464 1135.27C224.189 1139.55 224.189 1146.48 228.464 1150.76C232.739 1155.03 239.671 1155.03 243.947 1150.76Z" fill="white"/>
<path d="M357.373 1144.74C358.345 1138.78 354.294 1133.15 348.326 1132.18C342.357 1131.21 336.731 1135.26 335.76 1141.22C334.788 1147.19 338.839 1152.82 344.807 1153.79C350.775 1154.76 356.401 1150.71 357.373 1144.74Z" fill="white"/>
<path d="M467.73 1144.74C468.702 1138.78 464.651 1133.15 458.683 1132.18C452.715 1131.21 447.089 1135.26 446.117 1141.22C445.145 1147.19 449.196 1152.82 455.164 1153.79C461.133 1154.76 466.759 1150.71 467.73 1144.74Z" fill="white"/>
<path d="M578.088 1144.74C579.059 1138.78 575.009 1133.15 569.04 1132.18C563.072 1131.21 557.446 1135.26 556.474 1141.22C555.503 1147.19 559.553 1152.82 565.522 1153.79C571.49 1154.76 577.116 1150.71 578.088 1144.74Z" fill="white"/>
<path d="M688.445 1144.74C689.417 1138.78 685.366 1133.15 679.398 1132.18C673.429 1131.21 667.804 1135.26 666.832 1141.22C665.86 1147.19 669.911 1152.82 675.879 1153.79C681.848 1154.76 687.473 1150.71 688.445 1144.74Z" fill="white"/>
<path d="M798.803 1144.74C799.774 1138.78 795.724 1133.15 789.755 1132.18C783.787 1131.21 778.161 1135.26 777.189 1141.22C776.218 1147.19 780.268 1152.82 786.237 1153.79C792.205 1154.76 797.831 1150.71 798.803 1144.74Z" fill="white"/>
<path d="M909.16 1144.74C910.132 1138.77 906.081 1133.15 900.113 1132.18C894.144 1131.21 888.518 1135.26 887.547 1141.22C886.575 1147.19 890.626 1152.82 896.594 1153.79C902.562 1154.76 908.188 1150.71 909.16 1144.74Z" fill="white"/>
<path d="M1019.58 1144.78C1020.55 1138.82 1016.5 1133.19 1010.53 1132.22C1004.56 1131.25 998.935 1135.31 997.967 1141.28C996.998 1147.24 1001.05 1152.87 1007.02 1153.84C1012.99 1154.81 1018.61 1150.75 1019.58 1144.78Z" fill="white"/>
<path d="M1129.94 1144.78C1130.91 1138.81 1126.86 1133.19 1120.89 1132.22C1114.92 1131.25 1109.3 1135.31 1108.33 1141.27C1107.36 1147.24 1111.41 1152.87 1117.38 1153.83C1123.35 1154.8 1128.98 1150.75 1129.94 1144.78Z" fill="white"/>
<path d="M1240.31 1144.78C1241.28 1138.81 1237.22 1133.19 1231.25 1132.22C1225.28 1131.25 1219.66 1135.3 1218.69 1141.27C1217.72 1147.24 1221.78 1152.86 1227.75 1153.83C1233.71 1154.8 1239.34 1150.75 1240.31 1144.78Z" fill="white"/>
<path d="M1350.67 1144.78C1351.64 1138.81 1347.59 1133.19 1341.62 1132.22C1335.65 1131.25 1330.02 1135.3 1329.05 1141.27C1328.09 1147.24 1332.14 1152.86 1338.11 1153.83C1344.08 1154.8 1349.7 1150.75 1350.67 1144.78Z" fill="white"/>
<path d="M1461.03 1144.78C1462 1138.81 1457.95 1133.19 1451.98 1132.22C1446.01 1131.25 1440.39 1135.3 1439.42 1141.27C1438.45 1147.24 1442.5 1152.86 1448.47 1153.83C1454.44 1154.8 1460.06 1150.75 1461.03 1144.78Z" fill="white"/>
<path d="M1571.4 1144.78C1572.36 1138.81 1568.31 1133.18 1562.34 1132.22C1556.37 1131.25 1550.75 1135.3 1549.78 1141.27C1548.81 1147.24 1552.86 1152.86 1558.83 1153.83C1564.8 1154.8 1570.43 1150.74 1571.4 1144.78Z" fill="white"/>
<path d="M1681.58 1145.68C1682.97 1139.79 1679.33 1133.9 1673.44 1132.51C1667.56 1131.12 1661.66 1134.76 1660.27 1140.65C1658.88 1146.53 1662.53 1152.43 1668.41 1153.82C1674.29 1155.21 1680.19 1151.56 1681.58 1145.68Z" fill="white"/>
<path d="M1792.12 1144.77C1793.09 1138.8 1789.04 1133.18 1783.07 1132.21C1777.1 1131.24 1771.47 1135.3 1770.51 1141.27C1769.54 1147.23 1773.59 1152.86 1779.56 1153.83C1785.53 1154.79 1791.15 1150.74 1792.12 1144.77Z" fill="white"/>
<path d="M1902.31 1145.69C1903.7 1139.8 1900.06 1133.91 1894.17 1132.52C1888.29 1131.13 1882.39 1134.77 1881 1140.66C1879.61 1146.54 1883.26 1152.44 1889.14 1153.83C1895.03 1155.22 1900.92 1151.57 1902.31 1145.69Z" fill="white"/>
<path d="M15.4939 1256.88C21.5403 1256.88 26.4419 1251.98 26.4419 1245.94C26.4419 1239.89 21.5403 1234.99 15.4939 1234.99C9.44748 1234.99 4.5459 1239.89 4.5459 1245.94C4.5459 1251.98 9.44748 1256.88 15.4939 1256.88Z" fill="white"/>
<path d="M125.854 1256.88C131.9 1256.88 136.802 1251.98 136.802 1245.94C136.802 1239.89 131.9 1234.99 125.854 1234.99C119.808 1234.99 114.906 1239.89 114.906 1245.94C114.906 1251.98 119.808 1256.88 125.854 1256.88Z" fill="white"/>
<path d="M236.215 1256.88C242.261 1256.88 247.163 1251.98 247.163 1245.94C247.163 1239.89 242.261 1234.99 236.215 1234.99C230.168 1234.99 225.267 1239.89 225.267 1245.94C225.267 1251.98 230.168 1256.88 236.215 1256.88Z" fill="white"/>
<path d="M346.576 1256.88C352.622 1256.88 357.524 1251.98 357.524 1245.94C357.524 1239.89 352.622 1234.99 346.576 1234.99C340.53 1234.99 335.628 1239.89 335.628 1245.94C335.628 1251.98 340.53 1256.88 346.576 1256.88Z" fill="white"/>
<path d="M456.937 1256.88C462.983 1256.88 467.885 1251.98 467.885 1245.94C467.885 1239.89 462.983 1234.99 456.937 1234.99C450.89 1234.99 445.989 1239.89 445.989 1245.94C445.989 1251.98 450.89 1256.88 456.937 1256.88Z" fill="white"/>
<path d="M567.297 1256.88C573.343 1256.88 578.245 1251.98 578.245 1245.94C578.245 1239.89 573.343 1234.99 567.297 1234.99C561.25 1234.99 556.349 1239.89 556.349 1245.94C556.349 1251.98 561.25 1256.88 567.297 1256.88Z" fill="white"/>
<path d="M677.658 1256.88C683.704 1256.88 688.606 1251.98 688.606 1245.94C688.606 1239.89 683.704 1234.99 677.658 1234.99C671.612 1234.99 666.71 1239.89 666.71 1245.94C666.71 1251.98 671.612 1256.88 677.658 1256.88Z" fill="white"/>
<path d="M788.019 1256.88C794.065 1256.88 798.967 1251.98 798.967 1245.94C798.967 1239.89 794.065 1234.99 788.019 1234.99C781.972 1234.99 777.071 1239.89 777.071 1245.94C777.071 1251.98 781.972 1256.88 788.019 1256.88Z" fill="white"/>
<path d="M898.38 1256.88C904.426 1256.88 909.328 1251.98 909.328 1245.94C909.328 1239.89 904.426 1234.99 898.38 1234.99C892.333 1234.99 887.432 1239.89 887.432 1245.94C887.432 1251.98 892.333 1256.88 898.38 1256.88Z" fill="white"/>
<path d="M1008.74 1256.88C1014.79 1256.88 1019.69 1251.98 1019.69 1245.94C1019.69 1239.89 1014.79 1234.99 1008.74 1234.99C1002.69 1234.99 997.792 1239.89 997.792 1245.94C997.792 1251.98 1002.69 1256.88 1008.74 1256.88Z" fill="white"/>
<path d="M1119.1 1256.88C1125.15 1256.88 1130.05 1251.98 1130.05 1245.94C1130.05 1239.89 1125.15 1234.99 1119.1 1234.99C1113.05 1234.99 1108.15 1239.89 1108.15 1245.94C1108.15 1251.98 1113.05 1256.88 1119.1 1256.88Z" fill="white"/>
<path d="M1229.46 1256.88C1235.51 1256.88 1240.41 1251.98 1240.41 1245.94C1240.41 1239.89 1235.51 1234.99 1229.46 1234.99C1223.42 1234.99 1218.51 1239.89 1218.51 1245.94C1218.51 1251.98 1223.42 1256.88 1229.46 1256.88Z" fill="white"/>
<path d="M1339.82 1256.88C1345.87 1256.88 1350.77 1251.98 1350.77 1245.94C1350.77 1239.89 1345.87 1234.99 1339.82 1234.99C1333.78 1234.99 1328.87 1239.89 1328.87 1245.94C1328.87 1251.98 1333.78 1256.88 1339.82 1256.88Z" fill="white"/>
<path d="M1450.18 1256.88C1456.23 1256.88 1461.13 1251.98 1461.13 1245.94C1461.13 1239.89 1456.23 1234.99 1450.18 1234.99C1444.14 1234.99 1439.23 1239.89 1439.23 1245.94C1439.23 1251.98 1444.14 1256.88 1450.18 1256.88Z" fill="white"/>
<path d="M1560.54 1256.88C1566.59 1256.88 1571.49 1251.98 1571.49 1245.94C1571.49 1239.89 1566.59 1234.99 1560.54 1234.99C1554.5 1234.99 1549.6 1239.89 1549.6 1245.94C1549.6 1251.98 1554.5 1256.88 1560.54 1256.88Z" fill="white"/>
<path d="M1670.9 1256.88C1676.95 1256.88 1681.85 1251.98 1681.85 1245.94C1681.85 1239.89 1676.95 1234.99 1670.9 1234.99C1664.86 1234.99 1659.96 1239.89 1659.96 1245.94C1659.96 1251.98 1664.86 1256.88 1670.9 1256.88Z" fill="white"/>
<path d="M1781.27 1256.88C1787.31 1256.88 1792.21 1251.98 1792.21 1245.94C1792.21 1239.89 1787.31 1234.99 1781.27 1234.99C1775.22 1234.99 1770.32 1239.89 1770.32 1245.94C1770.32 1251.98 1775.22 1256.88 1781.27 1256.88Z" fill="white"/>
<path d="M1891.63 1256.88C1897.67 1256.88 1902.57 1251.98 1902.57 1245.94C1902.57 1239.89 1897.67 1234.99 1891.63 1234.99C1885.58 1234.99 1880.68 1239.89 1880.68 1245.94C1880.68 1251.98 1885.58 1256.88 1891.63 1256.88Z" fill="white"/>
<path d="M15.4939 1359.8C21.5403 1359.8 26.4419 1354.9 26.4419 1348.85C26.4419 1342.81 21.5403 1337.9 15.4939 1337.9C9.44748 1337.9 4.5459 1342.81 4.5459 1348.85C4.5459 1354.9 9.44748 1359.8 15.4939 1359.8Z" fill="white"/>
<path d="M125.854 1359.8C131.9 1359.8 136.802 1354.9 136.802 1348.85C136.802 1342.81 131.9 1337.9 125.854 1337.9C119.808 1337.9 114.906 1342.81 114.906 1348.85C114.906 1354.9 119.808 1359.8 125.854 1359.8Z" fill="white"/>
<path d="M236.215 1359.8C242.261 1359.8 247.163 1354.9 247.163 1348.85C247.163 1342.81 242.261 1337.9 236.215 1337.9C230.168 1337.9 225.267 1342.81 225.267 1348.85C225.267 1354.9 230.168 1359.8 236.215 1359.8Z" fill="white"/>
<path d="M346.576 1359.8C352.622 1359.8 357.524 1354.9 357.524 1348.85C357.524 1342.81 352.622 1337.9 346.576 1337.9C340.53 1337.9 335.628 1342.81 335.628 1348.85C335.628 1354.9 340.53 1359.8 346.576 1359.8Z" fill="white"/>
<path d="M456.937 1359.8C462.983 1359.8 467.885 1354.9 467.885 1348.85C467.885 1342.81 462.983 1337.9 456.937 1337.9C450.89 1337.9 445.989 1342.81 445.989 1348.85C445.989 1354.9 450.89 1359.8 456.937 1359.8Z" fill="white"/>
<path d="M567.297 1359.8C573.343 1359.8 578.245 1354.9 578.245 1348.85C578.245 1342.81 573.343 1337.9 567.297 1337.9C561.25 1337.9 556.349 1342.81 556.349 1348.85C556.349 1354.9 561.25 1359.8 567.297 1359.8Z" fill="white"/>
<path d="M677.658 1359.8C683.704 1359.8 688.606 1354.9 688.606 1348.85C688.606 1342.81 683.704 1337.9 677.658 1337.9C671.612 1337.9 666.71 1342.81 666.71 1348.85C666.71 1354.9 671.612 1359.8 677.658 1359.8Z" fill="white"/>
<path d="M788.019 1359.8C794.065 1359.8 798.967 1354.9 798.967 1348.85C798.967 1342.81 794.065 1337.9 788.019 1337.9C781.972 1337.9 777.071 1342.81 777.071 1348.85C777.071 1354.9 781.972 1359.8 788.019 1359.8Z" fill="white"/>
<path d="M898.38 1359.8C904.426 1359.8 909.328 1354.9 909.328 1348.85C909.328 1342.81 904.426 1337.9 898.38 1337.9C892.333 1337.9 887.432 1342.81 887.432 1348.85C887.432 1354.9 892.333 1359.8 898.38 1359.8Z" fill="white"/>
<path d="M1008.74 1359.8C1014.79 1359.8 1019.69 1354.9 1019.69 1348.85C1019.69 1342.81 1014.79 1337.9 1008.74 1337.9C1002.69 1337.9 997.792 1342.81 997.792 1348.85C997.792 1354.9 1002.69 1359.8 1008.74 1359.8Z" fill="white"/>
<path d="M1119.1 1359.8C1125.15 1359.8 1130.05 1354.9 1130.05 1348.85C1130.05 1342.81 1125.15 1337.9 1119.1 1337.9C1113.05 1337.9 1108.15 1342.81 1108.15 1348.85C1108.15 1354.9 1113.05 1359.8 1119.1 1359.8Z" fill="white"/>
<path d="M1229.46 1359.8C1235.51 1359.8 1240.41 1354.9 1240.41 1348.85C1240.41 1342.81 1235.51 1337.9 1229.46 1337.9C1223.42 1337.9 1218.51 1342.81 1218.51 1348.85C1218.51 1354.9 1223.42 1359.8 1229.46 1359.8Z" fill="white"/>
<path d="M1339.82 1359.8C1345.87 1359.8 1350.77 1354.9 1350.77 1348.85C1350.77 1342.81 1345.87 1337.9 1339.82 1337.9C1333.78 1337.9 1328.87 1342.81 1328.87 1348.85C1328.87 1354.9 1333.78 1359.8 1339.82 1359.8Z" fill="white"/>
<path d="M1450.18 1359.8C1456.23 1359.8 1461.13 1354.9 1461.13 1348.85C1461.13 1342.81 1456.23 1337.9 1450.18 1337.9C1444.14 1337.9 1439.23 1342.81 1439.23 1348.85C1439.23 1354.9 1444.14 1359.8 1450.18 1359.8Z" fill="white"/>
<path d="M1560.54 1359.8C1566.59 1359.8 1571.49 1354.9 1571.49 1348.85C1571.49 1342.81 1566.59 1337.9 1560.54 1337.9C1554.5 1337.9 1549.6 1342.81 1549.6 1348.85C1549.6 1354.9 1554.5 1359.8 1560.54 1359.8Z" fill="white"/>
<path d="M1670.9 1359.8C1676.95 1359.8 1681.85 1354.9 1681.85 1348.85C1681.85 1342.81 1676.95 1337.9 1670.9 1337.9C1664.86 1337.9 1659.96 1342.81 1659.96 1348.85C1659.96 1354.9 1664.86 1359.8 1670.9 1359.8Z" fill="white"/>
<path d="M1781.27 1359.8C1787.31 1359.8 1792.21 1354.9 1792.21 1348.85C1792.21 1342.81 1787.31 1337.9 1781.27 1337.9C1775.22 1337.9 1770.32 1342.81 1770.32 1348.85C1770.32 1354.9 1775.22 1359.8 1781.27 1359.8Z" fill="white"/>
<path d="M1891.63 1359.8C1897.67 1359.8 1902.57 1354.9 1902.57 1348.85C1902.57 1342.81 1897.67 1337.9 1891.63 1337.9C1885.58 1337.9 1880.68 1342.81 1880.68 1348.85C1880.68 1354.9 1885.58 1359.8 1891.63 1359.8Z" fill="white"/>
<path d="M15.4939 1462.72C21.5403 1462.72 26.4419 1457.82 26.4419 1451.77C26.4419 1445.72 21.5403 1440.82 15.4939 1440.82C9.44748 1440.82 4.5459 1445.72 4.5459 1451.77C4.5459 1457.82 9.44748 1462.72 15.4939 1462.72Z" fill="white"/>
<path d="M125.854 1462.72C131.9 1462.72 136.802 1457.82 136.802 1451.77C136.802 1445.72 131.9 1440.82 125.854 1440.82C119.808 1440.82 114.906 1445.72 114.906 1451.77C114.906 1457.82 119.808 1462.72 125.854 1462.72Z" fill="white"/>
<path d="M236.215 1462.72C242.261 1462.72 247.163 1457.82 247.163 1451.77C247.163 1445.72 242.261 1440.82 236.215 1440.82C230.168 1440.82 225.267 1445.72 225.267 1451.77C225.267 1457.82 230.168 1462.72 236.215 1462.72Z" fill="white"/>
<path d="M346.576 1462.72C352.622 1462.72 357.524 1457.82 357.524 1451.77C357.524 1445.72 352.622 1440.82 346.576 1440.82C340.53 1440.82 335.628 1445.72 335.628 1451.77C335.628 1457.82 340.53 1462.72 346.576 1462.72Z" fill="white"/>
<path d="M456.937 1462.72C462.983 1462.72 467.885 1457.82 467.885 1451.77C467.885 1445.72 462.983 1440.82 456.937 1440.82C450.89 1440.82 445.989 1445.72 445.989 1451.77C445.989 1457.82 450.89 1462.72 456.937 1462.72Z" fill="white"/>
<path d="M567.297 1462.72C573.343 1462.72 578.245 1457.82 578.245 1451.77C578.245 1445.72 573.343 1440.82 567.297 1440.82C561.25 1440.82 556.349 1445.72 556.349 1451.77C556.349 1457.82 561.25 1462.72 567.297 1462.72Z" fill="white"/>
<path d="M677.658 1462.72C683.704 1462.72 688.606 1457.82 688.606 1451.77C688.606 1445.72 683.704 1440.82 677.658 1440.82C671.612 1440.82 666.71 1445.72 666.71 1451.77C666.71 1457.82 671.612 1462.72 677.658 1462.72Z" fill="white"/>
<path d="M788.019 1462.72C794.065 1462.72 798.967 1457.82 798.967 1451.77C798.967 1445.72 794.065 1440.82 788.019 1440.82C781.972 1440.82 777.071 1445.72 777.071 1451.77C777.071 1457.82 781.972 1462.72 788.019 1462.72Z" fill="white"/>
<path d="M898.38 1462.72C904.426 1462.72 909.328 1457.82 909.328 1451.77C909.328 1445.72 904.426 1440.82 898.38 1440.82C892.333 1440.82 887.432 1445.72 887.432 1451.77C887.432 1457.82 892.333 1462.72 898.38 1462.72Z" fill="white"/>
<path d="M1008.74 1462.72C1014.79 1462.72 1019.69 1457.82 1019.69 1451.77C1019.69 1445.72 1014.79 1440.82 1008.74 1440.82C1002.69 1440.82 997.792 1445.72 997.792 1451.77C997.792 1457.82 1002.69 1462.72 1008.74 1462.72Z" fill="white"/>
<path d="M1119.1 1462.72C1125.15 1462.72 1130.05 1457.82 1130.05 1451.77C1130.05 1445.72 1125.15 1440.82 1119.1 1440.82C1113.05 1440.82 1108.15 1445.72 1108.15 1451.77C1108.15 1457.82 1113.05 1462.72 1119.1 1462.72Z" fill="white"/>
<path d="M1229.46 1462.72C1235.51 1462.72 1240.41 1457.82 1240.41 1451.77C1240.41 1445.72 1235.51 1440.82 1229.46 1440.82C1223.42 1440.82 1218.51 1445.72 1218.51 1451.77C1218.51 1457.82 1223.42 1462.72 1229.46 1462.72Z" fill="white"/>
<path d="M1339.82 1462.72C1345.87 1462.72 1350.77 1457.82 1350.77 1451.77C1350.77 1445.72 1345.87 1440.82 1339.82 1440.82C1333.78 1440.82 1328.87 1445.72 1328.87 1451.77C1328.87 1457.82 1333.78 1462.72 1339.82 1462.72Z" fill="white"/>
<path d="M1450.18 1462.72C1456.23 1462.72 1461.13 1457.82 1461.13 1451.77C1461.13 1445.72 1456.23 1440.82 1450.18 1440.82C1444.14 1440.82 1439.23 1445.72 1439.23 1451.77C1439.23 1457.82 1444.14 1462.72 1450.18 1462.72Z" fill="white"/>
<path d="M1560.54 1462.72C1566.59 1462.72 1571.49 1457.82 1571.49 1451.77C1571.49 1445.72 1566.59 1440.82 1560.54 1440.82C1554.5 1440.82 1549.6 1445.72 1549.6 1451.77C1549.6 1457.82 1554.5 1462.72 1560.54 1462.72Z" fill="white"/>
<path d="M1670.9 1462.72C1676.95 1462.72 1681.85 1457.82 1681.85 1451.77C1681.85 1445.72 1676.95 1440.82 1670.9 1440.82C1664.86 1440.82 1659.96 1445.72 1659.96 1451.77C1659.96 1457.82 1664.86 1462.72 1670.9 1462.72Z" fill="white"/>
<path d="M1781.27 1462.72C1787.31 1462.72 1792.21 1457.82 1792.21 1451.77C1792.21 1445.72 1787.31 1440.82 1781.27 1440.82C1775.22 1440.82 1770.32 1445.72 1770.32 1451.77C1770.32 1457.82 1775.22 1462.72 1781.27 1462.72Z" fill="white"/>
<path d="M1891.63 1462.72C1897.67 1462.72 1902.57 1457.82 1902.57 1451.77C1902.57 1445.72 1897.67 1440.82 1891.63 1440.82C1885.58 1440.82 1880.68 1445.72 1880.68 1451.77C1880.68 1457.82 1885.58 1462.72 1891.63 1462.72Z" fill="white"/>
<path d="M23.224 1562.42C27.4994 1558.14 27.4994 1551.21 23.224 1546.93C18.9486 1542.66 12.0167 1542.66 7.74133 1546.93C3.46591 1551.21 3.46591 1558.14 7.74133 1562.42C12.0167 1566.69 18.9486 1566.69 23.224 1562.42Z" fill="white"/>
<path d="M136.659 1556.39C137.63 1550.43 133.58 1544.8 127.611 1543.83C121.643 1542.86 116.017 1546.91 115.045 1552.88C114.074 1558.84 118.124 1564.47 124.093 1565.44C130.061 1566.41 135.687 1562.36 136.659 1556.39Z" fill="white"/>
<path d="M243.944 1562.42C248.219 1558.14 248.219 1551.21 243.944 1546.93C239.668 1542.66 232.736 1542.66 228.461 1546.93C224.186 1551.21 224.186 1558.14 228.461 1562.42C232.736 1566.69 239.668 1566.69 243.944 1562.42Z" fill="white"/>
<path d="M357.374 1556.39C358.345 1550.43 354.295 1544.8 348.326 1543.83C342.358 1542.86 336.732 1546.91 335.76 1552.88C334.789 1558.84 338.839 1564.47 344.808 1565.44C350.776 1566.41 356.402 1562.36 357.374 1556.39Z" fill="white"/>
<path d="M467.731 1556.39C468.703 1550.43 464.652 1544.8 458.684 1543.83C452.715 1542.86 447.089 1546.91 446.118 1552.87C445.146 1558.84 449.197 1564.47 455.165 1565.44C461.133 1566.41 466.759 1562.36 467.731 1556.39Z" fill="white"/>
<path d="M578.088 1556.39C579.06 1550.43 575.01 1544.8 569.041 1543.83C563.073 1542.86 557.447 1546.91 556.475 1552.88C555.504 1558.84 559.554 1564.47 565.522 1565.44C571.491 1566.41 577.117 1562.36 578.088 1556.39Z" fill="white"/>
<path d="M688.446 1556.39C689.418 1550.43 685.367 1544.8 679.399 1543.83C673.43 1542.86 667.804 1546.91 666.833 1552.87C665.861 1558.84 669.912 1564.47 675.88 1565.44C681.848 1566.41 687.474 1562.36 688.446 1556.39Z" fill="white"/>
<path d="M798.803 1556.39C799.775 1550.43 795.724 1544.8 789.756 1543.83C783.788 1542.86 778.162 1546.91 777.19 1552.87C776.218 1558.84 780.269 1564.47 786.237 1565.44C792.206 1566.41 797.832 1562.36 798.803 1556.39Z" fill="white"/>
<path d="M909.161 1556.39C910.132 1550.43 906.082 1544.8 900.113 1543.83C894.145 1542.86 888.519 1546.91 887.547 1552.87C886.576 1558.84 890.626 1564.47 896.595 1565.44C902.563 1566.41 908.189 1562.36 909.161 1556.39Z" fill="white"/>
<path d="M1019.59 1556.45C1020.56 1550.49 1016.5 1544.86 1010.53 1543.89C1004.56 1542.92 998.94 1546.98 997.972 1552.95C997.003 1558.91 1001.06 1564.54 1007.03 1565.51C1012.99 1566.48 1018.62 1562.42 1019.59 1556.45Z" fill="white"/>
<path d="M1129.95 1556.45C1130.92 1550.48 1126.86 1544.86 1120.9 1543.89C1114.93 1542.92 1109.3 1546.98 1108.33 1552.94C1107.37 1558.91 1111.42 1564.54 1117.39 1565.51C1123.36 1566.47 1128.98 1562.42 1129.95 1556.45Z" fill="white"/>
<path d="M1240.31 1556.45C1241.28 1550.48 1237.23 1544.86 1231.26 1543.89C1225.29 1542.92 1219.67 1546.97 1218.7 1552.94C1217.73 1558.91 1221.78 1564.53 1227.75 1565.5C1233.72 1566.47 1239.34 1562.42 1240.31 1556.45Z" fill="white"/>
<path d="M1350.68 1556.45C1351.64 1550.48 1347.59 1544.86 1341.62 1543.89C1335.65 1542.92 1330.03 1546.97 1329.06 1552.94C1328.09 1558.91 1332.14 1564.53 1338.11 1565.5C1344.08 1566.47 1349.71 1562.42 1350.68 1556.45Z" fill="white"/>
<path d="M1461.04 1556.45C1462.01 1550.48 1457.95 1544.86 1451.98 1543.89C1446.02 1542.92 1440.39 1546.97 1439.42 1552.94C1438.45 1558.91 1442.51 1564.53 1448.48 1565.5C1454.45 1566.47 1460.07 1562.42 1461.04 1556.45Z" fill="white"/>
<path d="M1571.4 1556.45C1572.37 1550.48 1568.32 1544.85 1562.35 1543.89C1556.38 1542.92 1550.75 1546.97 1549.79 1552.94C1548.82 1558.91 1552.87 1564.53 1558.84 1565.5C1564.81 1566.47 1570.43 1562.42 1571.4 1556.45Z" fill="white"/>
<path d="M1681.56 1557.36C1682.95 1551.47 1679.31 1545.58 1673.42 1544.19C1667.54 1542.8 1661.64 1546.44 1660.25 1552.33C1658.86 1558.21 1662.51 1564.11 1668.39 1565.5C1674.27 1566.89 1680.17 1563.24 1681.56 1557.36Z" fill="white"/>
<path d="M1792.13 1556.44C1793.09 1550.48 1789.04 1544.85 1783.07 1543.88C1777.1 1542.91 1771.48 1546.97 1770.51 1552.94C1769.54 1558.9 1773.6 1564.53 1779.56 1565.5C1785.53 1566.46 1791.16 1562.41 1792.13 1556.44Z" fill="white"/>
<path d="M1902.29 1557.37C1903.68 1551.49 1900.04 1545.59 1894.15 1544.2C1888.27 1542.81 1882.37 1546.45 1880.98 1552.34C1879.59 1558.22 1883.24 1564.12 1889.12 1565.51C1895.01 1566.9 1900.9 1563.25 1902.29 1557.37Z" fill="white"/>
<path d="M15.4939 1668.55C21.5403 1668.55 26.4419 1663.65 26.4419 1657.6C26.4419 1651.55 21.5403 1646.65 15.4939 1646.65C9.44748 1646.65 4.5459 1651.55 4.5459 1657.6C4.5459 1663.65 9.44748 1668.55 15.4939 1668.55Z" fill="white"/>
<path d="M125.854 1668.55C131.9 1668.55 136.802 1663.65 136.802 1657.6C136.802 1651.55 131.9 1646.65 125.854 1646.65C119.808 1646.65 114.906 1651.55 114.906 1657.6C114.906 1663.65 119.808 1668.55 125.854 1668.55Z" fill="white"/>
<path d="M236.215 1668.55C242.261 1668.55 247.163 1663.65 247.163 1657.6C247.163 1651.55 242.261 1646.65 236.215 1646.65C230.168 1646.65 225.267 1651.55 225.267 1657.6C225.267 1663.65 230.168 1668.55 236.215 1668.55Z" fill="white"/>
<path d="M346.576 1668.55C352.622 1668.55 357.524 1663.65 357.524 1657.6C357.524 1651.55 352.622 1646.65 346.576 1646.65C340.53 1646.65 335.628 1651.55 335.628 1657.6C335.628 1663.65 340.53 1668.55 346.576 1668.55Z" fill="white"/>
<path d="M456.937 1668.55C462.983 1668.55 467.885 1663.65 467.885 1657.6C467.885 1651.55 462.983 1646.65 456.937 1646.65C450.89 1646.65 445.989 1651.55 445.989 1657.6C445.989 1663.65 450.89 1668.55 456.937 1668.55Z" fill="white"/>
<path d="M567.297 1668.55C573.343 1668.55 578.245 1663.65 578.245 1657.6C578.245 1651.55 573.343 1646.65 567.297 1646.65C561.25 1646.65 556.349 1651.55 556.349 1657.6C556.349 1663.65 561.25 1668.55 567.297 1668.55Z" fill="white"/>
<path d="M677.658 1668.55C683.704 1668.55 688.606 1663.65 688.606 1657.6C688.606 1651.55 683.704 1646.65 677.658 1646.65C671.612 1646.65 666.71 1651.55 666.71 1657.6C666.71 1663.65 671.612 1668.55 677.658 1668.55Z" fill="white"/>
<path d="M788.019 1668.55C794.065 1668.55 798.967 1663.65 798.967 1657.6C798.967 1651.55 794.065 1646.65 788.019 1646.65C781.972 1646.65 777.071 1651.55 777.071 1657.6C777.071 1663.65 781.972 1668.55 788.019 1668.55Z" fill="white"/>
<path d="M898.38 1668.55C904.426 1668.55 909.328 1663.65 909.328 1657.6C909.328 1651.55 904.426 1646.65 898.38 1646.65C892.333 1646.65 887.432 1651.55 887.432 1657.6C887.432 1663.65 892.333 1668.55 898.38 1668.55Z" fill="white"/>
<path d="M1008.74 1668.55C1014.79 1668.55 1019.69 1663.65 1019.69 1657.6C1019.69 1651.55 1014.79 1646.65 1008.74 1646.65C1002.69 1646.65 997.792 1651.55 997.792 1657.6C997.792 1663.65 1002.69 1668.55 1008.74 1668.55Z" fill="white"/>
<path d="M1119.1 1668.55C1125.15 1668.55 1130.05 1663.65 1130.05 1657.6C1130.05 1651.55 1125.15 1646.65 1119.1 1646.65C1113.05 1646.65 1108.15 1651.55 1108.15 1657.6C1108.15 1663.65 1113.05 1668.55 1119.1 1668.55Z" fill="white"/>
<path d="M1229.46 1668.55C1235.51 1668.55 1240.41 1663.65 1240.41 1657.6C1240.41 1651.55 1235.51 1646.65 1229.46 1646.65C1223.42 1646.65 1218.51 1651.55 1218.51 1657.6C1218.51 1663.65 1223.42 1668.55 1229.46 1668.55Z" fill="white"/>
<path d="M1339.82 1668.55C1345.87 1668.55 1350.77 1663.65 1350.77 1657.6C1350.77 1651.55 1345.87 1646.65 1339.82 1646.65C1333.78 1646.65 1328.87 1651.55 1328.87 1657.6C1328.87 1663.65 1333.78 1668.55 1339.82 1668.55Z" fill="white"/>
<path d="M1450.18 1668.55C1456.23 1668.55 1461.13 1663.65 1461.13 1657.6C1461.13 1651.55 1456.23 1646.65 1450.18 1646.65C1444.14 1646.65 1439.23 1651.55 1439.23 1657.6C1439.23 1663.65 1444.14 1668.55 1450.18 1668.55Z" fill="white"/>
<path d="M1560.54 1668.55C1566.59 1668.55 1571.49 1663.65 1571.49 1657.6C1571.49 1651.55 1566.59 1646.65 1560.54 1646.65C1554.5 1646.65 1549.6 1651.55 1549.6 1657.6C1549.6 1663.65 1554.5 1668.55 1560.54 1668.55Z" fill="white"/>
<path d="M1670.9 1668.55C1676.95 1668.55 1681.85 1663.65 1681.85 1657.6C1681.85 1651.55 1676.95 1646.65 1670.9 1646.65C1664.86 1646.65 1659.96 1651.55 1659.96 1657.6C1659.96 1663.65 1664.86 1668.55 1670.9 1668.55Z" fill="white"/>
<path d="M1781.27 1668.55C1787.31 1668.55 1792.21 1663.65 1792.21 1657.6C1792.21 1651.55 1787.31 1646.65 1781.27 1646.65C1775.22 1646.65 1770.32 1651.55 1770.32 1657.6C1770.32 1663.65 1775.22 1668.55 1781.27 1668.55Z" fill="white"/>
<path d="M1891.63 1668.55C1897.67 1668.55 1902.57 1663.65 1902.57 1657.6C1902.57 1651.55 1897.67 1646.65 1891.63 1646.65C1885.58 1646.65 1880.68 1651.55 1880.68 1657.6C1880.68 1663.65 1885.58 1668.55 1891.63 1668.55Z" fill="white"/>
<path d="M15.4939 1771.46C21.5403 1771.46 26.4419 1766.56 26.4419 1760.52C26.4419 1754.47 21.5403 1749.57 15.4939 1749.57C9.44748 1749.57 4.5459 1754.47 4.5459 1760.52C4.5459 1766.56 9.44748 1771.46 15.4939 1771.46Z" fill="white"/>
<path d="M125.854 1771.46C131.9 1771.46 136.802 1766.56 136.802 1760.52C136.802 1754.47 131.9 1749.57 125.854 1749.57C119.808 1749.57 114.906 1754.47 114.906 1760.52C114.906 1766.56 119.808 1771.46 125.854 1771.46Z" fill="white"/>
<path d="M236.215 1771.46C242.261 1771.46 247.163 1766.56 247.163 1760.52C247.163 1754.47 242.261 1749.57 236.215 1749.57C230.168 1749.57 225.267 1754.47 225.267 1760.52C225.267 1766.56 230.168 1771.46 236.215 1771.46Z" fill="white"/>
<path d="M346.576 1771.46C352.622 1771.46 357.524 1766.56 357.524 1760.52C357.524 1754.47 352.622 1749.57 346.576 1749.57C340.53 1749.57 335.628 1754.47 335.628 1760.52C335.628 1766.56 340.53 1771.46 346.576 1771.46Z" fill="white"/>
<path d="M456.937 1771.46C462.983 1771.46 467.885 1766.56 467.885 1760.52C467.885 1754.47 462.983 1749.57 456.937 1749.57C450.89 1749.57 445.989 1754.47 445.989 1760.52C445.989 1766.56 450.89 1771.46 456.937 1771.46Z" fill="white"/>
<path d="M567.297 1771.46C573.343 1771.46 578.245 1766.56 578.245 1760.52C578.245 1754.47 573.343 1749.57 567.297 1749.57C561.25 1749.57 556.349 1754.47 556.349 1760.52C556.349 1766.56 561.25 1771.46 567.297 1771.46Z" fill="white"/>
<path d="M677.658 1771.46C683.704 1771.46 688.606 1766.56 688.606 1760.52C688.606 1754.47 683.704 1749.57 677.658 1749.57C671.612 1749.57 666.71 1754.47 666.71 1760.52C666.71 1766.56 671.612 1771.46 677.658 1771.46Z" fill="white"/>
<path d="M788.019 1771.46C794.065 1771.46 798.967 1766.56 798.967 1760.52C798.967 1754.47 794.065 1749.57 788.019 1749.57C781.972 1749.57 777.071 1754.47 777.071 1760.52C777.071 1766.56 781.972 1771.46 788.019 1771.46Z" fill="white"/>
<path d="M898.38 1771.46C904.426 1771.46 909.328 1766.56 909.328 1760.52C909.328 1754.47 904.426 1749.57 898.38 1749.57C892.333 1749.57 887.432 1754.47 887.432 1760.52C887.432 1766.56 892.333 1771.46 898.38 1771.46Z" fill="white"/>
<path d="M1008.74 1771.46C1014.79 1771.46 1019.69 1766.56 1019.69 1760.52C1019.69 1754.47 1014.79 1749.57 1008.74 1749.57C1002.69 1749.57 997.792 1754.47 997.792 1760.52C997.792 1766.56 1002.69 1771.46 1008.74 1771.46Z" fill="white"/>
<path d="M1119.1 1771.46C1125.15 1771.46 1130.05 1766.56 1130.05 1760.52C1130.05 1754.47 1125.15 1749.57 1119.1 1749.57C1113.05 1749.57 1108.15 1754.47 1108.15 1760.52C1108.15 1766.56 1113.05 1771.46 1119.1 1771.46Z" fill="white"/>
<path d="M1229.46 1771.46C1235.51 1771.46 1240.41 1766.56 1240.41 1760.52C1240.41 1754.47 1235.51 1749.57 1229.46 1749.57C1223.42 1749.57 1218.51 1754.47 1218.51 1760.52C1218.51 1766.56 1223.42 1771.46 1229.46 1771.46Z" fill="white"/>
<path d="M1339.82 1771.46C1345.87 1771.46 1350.77 1766.56 1350.77 1760.52C1350.77 1754.47 1345.87 1749.57 1339.82 1749.57C1333.78 1749.57 1328.87 1754.47 1328.87 1760.52C1328.87 1766.56 1333.78 1771.46 1339.82 1771.46Z" fill="white"/>
<path d="M1450.18 1771.46C1456.23 1771.46 1461.13 1766.56 1461.13 1760.52C1461.13 1754.47 1456.23 1749.57 1450.18 1749.57C1444.14 1749.57 1439.23 1754.47 1439.23 1760.52C1439.23 1766.56 1444.14 1771.46 1450.18 1771.46Z" fill="white"/>
<path d="M1560.54 1771.46C1566.59 1771.46 1571.49 1766.56 1571.49 1760.52C1571.49 1754.47 1566.59 1749.57 1560.54 1749.57C1554.5 1749.57 1549.6 1754.47 1549.6 1760.52C1549.6 1766.56 1554.5 1771.46 1560.54 1771.46Z" fill="white"/>
<path d="M1670.9 1771.46C1676.95 1771.46 1681.85 1766.56 1681.85 1760.52C1681.85 1754.47 1676.95 1749.57 1670.9 1749.57C1664.86 1749.57 1659.96 1754.47 1659.96 1760.52C1659.96 1766.56 1664.86 1771.46 1670.9 1771.46Z" fill="white"/>
<path d="M1781.27 1771.46C1787.31 1771.46 1792.21 1766.56 1792.21 1760.52C1792.21 1754.47 1787.31 1749.57 1781.27 1749.57C1775.22 1749.57 1770.32 1754.47 1770.32 1760.52C1770.32 1766.56 1775.22 1771.46 1781.27 1771.46Z" fill="white"/>
<path d="M1891.63 1771.46C1897.67 1771.46 1902.57 1766.56 1902.57 1760.52C1902.57 1754.47 1897.67 1749.57 1891.63 1749.57C1885.58 1749.57 1880.68 1754.47 1880.68 1760.52C1880.68 1766.56 1885.58 1771.46 1891.63 1771.46Z" fill="white"/>
<path d="M15.4939 1874.38C21.5403 1874.38 26.4419 1869.48 26.4419 1863.43C26.4419 1857.39 21.5403 1852.48 15.4939 1852.48C9.44748 1852.48 4.5459 1857.39 4.5459 1863.43C4.5459 1869.48 9.44748 1874.38 15.4939 1874.38Z" fill="white"/>
<path d="M125.854 1874.38C131.9 1874.38 136.802 1869.48 136.802 1863.43C136.802 1857.39 131.9 1852.48 125.854 1852.48C119.808 1852.48 114.906 1857.39 114.906 1863.43C114.906 1869.48 119.808 1874.38 125.854 1874.38Z" fill="white"/>
<path d="M236.215 1874.38C242.261 1874.38 247.163 1869.48 247.163 1863.43C247.163 1857.39 242.261 1852.48 236.215 1852.48C230.168 1852.48 225.267 1857.39 225.267 1863.43C225.267 1869.48 230.168 1874.38 236.215 1874.38Z" fill="white"/>
<path d="M346.576 1874.38C352.622 1874.38 357.524 1869.48 357.524 1863.43C357.524 1857.39 352.622 1852.48 346.576 1852.48C340.53 1852.48 335.628 1857.39 335.628 1863.43C335.628 1869.48 340.53 1874.38 346.576 1874.38Z" fill="white"/>
<path d="M456.937 1874.38C462.983 1874.38 467.885 1869.48 467.885 1863.43C467.885 1857.39 462.983 1852.48 456.937 1852.48C450.89 1852.48 445.989 1857.39 445.989 1863.43C445.989 1869.48 450.89 1874.38 456.937 1874.38Z" fill="white"/>
<path d="M567.297 1874.38C573.343 1874.38 578.245 1869.48 578.245 1863.43C578.245 1857.39 573.343 1852.48 567.297 1852.48C561.25 1852.48 556.349 1857.39 556.349 1863.43C556.349 1869.48 561.25 1874.38 567.297 1874.38Z" fill="white"/>
<path d="M677.658 1874.38C683.704 1874.38 688.606 1869.48 688.606 1863.43C688.606 1857.39 683.704 1852.48 677.658 1852.48C671.612 1852.48 666.71 1857.39 666.71 1863.43C666.71 1869.48 671.612 1874.38 677.658 1874.38Z" fill="white"/>
<path d="M788.019 1874.38C794.065 1874.38 798.967 1869.48 798.967 1863.43C798.967 1857.39 794.065 1852.48 788.019 1852.48C781.972 1852.48 777.071 1857.39 777.071 1863.43C777.071 1869.48 781.972 1874.38 788.019 1874.38Z" fill="white"/>
<path d="M898.38 1874.38C904.426 1874.38 909.328 1869.48 909.328 1863.43C909.328 1857.39 904.426 1852.48 898.38 1852.48C892.333 1852.48 887.432 1857.39 887.432 1863.43C887.432 1869.48 892.333 1874.38 898.38 1874.38Z" fill="white"/>
<path d="M1008.74 1874.38C1014.79 1874.38 1019.69 1869.48 1019.69 1863.43C1019.69 1857.39 1014.79 1852.48 1008.74 1852.48C1002.69 1852.48 997.792 1857.39 997.792 1863.43C997.792 1869.48 1002.69 1874.38 1008.74 1874.38Z" fill="white"/>
<path d="M1119.1 1874.38C1125.15 1874.38 1130.05 1869.48 1130.05 1863.43C1130.05 1857.39 1125.15 1852.48 1119.1 1852.48C1113.05 1852.48 1108.15 1857.39 1108.15 1863.43C1108.15 1869.48 1113.05 1874.38 1119.1 1874.38Z" fill="white"/>
<path d="M1229.46 1874.38C1235.51 1874.38 1240.41 1869.48 1240.41 1863.43C1240.41 1857.39 1235.51 1852.48 1229.46 1852.48C1223.42 1852.48 1218.51 1857.39 1218.51 1863.43C1218.51 1869.48 1223.42 1874.38 1229.46 1874.38Z" fill="white"/>
<path d="M1339.82 1874.38C1345.87 1874.38 1350.77 1869.48 1350.77 1863.43C1350.77 1857.39 1345.87 1852.48 1339.82 1852.48C1333.78 1852.48 1328.87 1857.39 1328.87 1863.43C1328.87 1869.48 1333.78 1874.38 1339.82 1874.38Z" fill="white"/>
<path d="M1450.18 1874.38C1456.23 1874.38 1461.13 1869.48 1461.13 1863.43C1461.13 1857.39 1456.23 1852.48 1450.18 1852.48C1444.14 1852.48 1439.23 1857.39 1439.23 1863.43C1439.23 1869.48 1444.14 1874.38 1450.18 1874.38Z" fill="white"/>
<path d="M1560.54 1874.38C1566.59 1874.38 1571.49 1869.48 1571.49 1863.43C1571.49 1857.39 1566.59 1852.48 1560.54 1852.48C1554.5 1852.48 1549.6 1857.39 1549.6 1863.43C1549.6 1869.48 1554.5 1874.38 1560.54 1874.38Z" fill="white"/>
<path d="M1670.9 1874.38C1676.95 1874.38 1681.85 1869.48 1681.85 1863.43C1681.85 1857.39 1676.95 1852.48 1670.9 1852.48C1664.86 1852.48 1659.96 1857.39 1659.96 1863.43C1659.96 1869.48 1664.86 1874.38 1670.9 1874.38Z" fill="white"/>
<path d="M1781.27 1874.38C1787.31 1874.38 1792.21 1869.48 1792.21 1863.43C1792.21 1857.39 1787.31 1852.48 1781.27 1852.48C1775.22 1852.48 1770.32 1857.39 1770.32 1863.43C1770.32 1869.48 1775.22 1874.38 1781.27 1874.38Z" fill="white"/>
<path d="M1891.63 1874.38C1897.67 1874.38 1902.57 1869.48 1902.57 1863.43C1902.57 1857.39 1897.67 1852.48 1891.63 1852.48C1885.58 1852.48 1880.68 1857.39 1880.68 1863.43C1880.68 1869.48 1885.58 1874.38 1891.63 1874.38Z" fill="white"/>
</svg>
