<svg width="60" height="60" viewBox="0 0 60 60" fill="none" xmlns="http://www.w3.org/2000/svg">
<path d="M46.0761 52.4009V54.7109H14.4441V52.4009H21.7751H38.6451H46.0761Z" fill="#9BC9FF"/>
<path d="M30.21 39.0459C30.813 39.0459 31.314 39.5479 31.314 40.1499C31.314 40.7529 30.812 41.1539 30.21 41.1539C29.607 41.1539 29.105 40.7519 29.105 40.1499C29.105 39.5479 29.608 39.0459 30.21 39.0459Z" fill="white"/>
<path d="M56.218 7.0121V40.2511C56.218 41.7571 54.813 43.1631 53.306 43.1631H36.134H24.285H19.264H7.11401C5.60801 43.1631 4.20203 41.7571 4.20203 40.2511V7.0121C4.20203 5.5061 5.60801 4.1001 7.11401 4.1001C27.097 4.1001 34.227 4.1001 53.306 4.1001C54.813 4.1001 56.218 5.5061 56.218 7.0121ZM53.205 34.2261V7.1131C34.729 7.1131 26.494 7.1131 7.11304 7.1131V34.2261H53.205ZM31.315 40.1501C31.315 39.5471 30.813 39.0461 30.211 39.0461C29.608 39.0461 29.106 39.5481 29.106 40.1501C29.106 40.7531 29.609 41.1541 30.211 41.1541C30.813 41.1551 31.315 40.7531 31.315 40.1501Z" fill="white"/>
<path d="M40.9551 21.272C42.4621 21.272 43.7671 22.477 43.7671 24.084C43.7671 25.59 42.5621 26.896 40.9551 26.896C39.4491 26.896 38.1431 25.691 38.1431 24.084C38.1431 22.477 39.4491 21.272 40.9551 21.272Z" fill="white"/>
<path d="M48.586 24.0831V24.5851L46.478 24.8861C46.377 25.2881 46.277 25.6901 46.176 25.9911L47.883 27.2971L47.28 28.3011L45.272 27.4981C45.071 27.7991 44.77 28.1011 44.468 28.3011L45.272 30.3101L44.268 30.9131L42.962 29.2051C42.56 29.3061 42.259 29.4061 41.858 29.5071L41.556 31.6151H40.452L40.151 29.5071C39.749 29.4061 39.347 29.3061 39.046 29.2051L37.741 30.9131L36.837 30.4101L37.6411 28.4021C37.3391 28.2011 37.038 27.9001 36.837 27.5991L34.829 28.4021L34.327 27.4981L36.034 26.1931C35.934 25.7911 35.833 25.4901 35.732 25.0881L33.624 24.7871V24.2851V23.7831L35.732 23.4821C35.833 23.0801 35.933 22.6791 36.034 22.3781L34.327 21.0721L34.829 20.1681L36.837 20.9721C37.038 20.6711 37.3391 20.3691 37.6411 20.1681L36.837 18.1601L37.741 17.6581L39.046 19.3651C39.448 19.2641 39.749 19.1641 40.151 19.0641L40.452 16.9551H41.556L41.858 19.0641C42.259 19.1651 42.661 19.2651 42.962 19.3651L44.268 17.1561L45.171 17.6581L44.367 19.6661C44.669 19.8671 44.97 20.1681 45.171 20.4691L47.18 19.6661L47.682 20.5701L45.975 21.8761C46.075 22.2771 46.175 22.5791 46.276 22.9801L48.384 23.2811V24.0841L48.586 24.0831ZM43.7661 24.0831C43.7661 22.5771 42.561 21.2711 40.954 21.2711C39.448 21.2711 38.142 22.4761 38.142 24.0831C38.142 25.5891 39.347 26.8951 40.954 26.8951C42.461 26.8951 43.7661 25.5901 43.7661 24.0831Z" fill="white"/>
<path d="M53.205 7.11304V34.226H7.11304V7.11304C26.494 7.11304 34.729 7.11304 53.205 7.11304ZM48.586 24.585V24.083V23.581L46.478 23.179C46.377 22.777 46.277 22.376 46.176 22.075L47.883 20.769L47.28 19.765L45.273 20.569C45.072 20.268 44.771 19.966 44.469 19.766L45.273 17.758L44.269 17.155L42.963 18.862C42.561 18.761 42.26 18.661 41.859 18.561L41.557 16.452H40.453L40.152 18.561C39.75 18.662 39.348 18.762 39.047 18.862L37.642 17.155L36.738 17.657L37.542 19.665C37.241 19.866 36.94 20.167 36.738 20.468L34.73 19.665L34.228 20.569L35.935 21.875C35.834 22.276 35.734 22.578 35.633 22.979L33.525 23.28V23.782V24.284L35.633 24.585C35.734 24.987 35.834 25.389 35.935 25.69L34.228 26.995L34.73 27.899L36.738 27.096C36.939 27.397 37.241 27.699 37.542 27.899L36.738 29.907L37.642 30.409L38.948 28.702C39.349 28.803 39.65 28.903 40.052 29.003L40.353 31.112H41.457L41.759 29.003C42.16 28.902 42.562 28.802 42.863 28.702L44.169 30.409L45.072 29.907L44.269 27.899C44.57 27.698 44.872 27.397 45.072 27.096L47.081 27.899L47.583 26.995L45.876 25.69C45.977 25.288 46.076 24.987 46.177 24.585H48.586Z" fill="#9BC9FF"/>
<path d="M53.306 43.564H36.134C35.934 43.564 35.733 43.363 35.733 43.163C35.733 42.962 35.934 42.761 36.134 42.761H53.306C54.612 42.761 55.817 41.556 55.817 40.251V7.01198C55.817 5.70698 54.612 4.50198 53.306 4.50198H7.11401C5.80801 4.50198 4.60303 5.70698 4.60303 7.01198V40.251C4.60303 41.556 5.80801 42.761 7.11401 42.761H24.286C24.486 42.761 24.687 42.962 24.687 43.163C24.687 43.364 24.486 43.564 24.286 43.564H7.11401C5.40701 43.564 3.80103 42.058 3.80103 40.251V7.01198C3.80103 5.30498 5.30701 3.69897 7.11401 3.69897H53.306C55.013 3.69897 56.619 5.20498 56.619 7.01198V40.251C56.619 41.958 55.013 43.564 53.306 43.564Z" fill="#1E81CE"/>
<path d="M53.205 34.6269H7.11304C6.91204 34.6269 6.71204 34.4259 6.71204 34.2249V7.11294C6.71204 6.91194 6.91204 6.71094 7.11304 6.71094H53.205C53.406 6.71094 53.607 6.91194 53.607 7.11294V34.2259C53.608 34.4269 53.407 34.6269 53.205 34.6269ZM7.51501 33.8239H52.804V7.51394H7.51501V33.8239Z" fill="#1E81CE"/>
<path d="M38.645 52.8029C38.444 52.8029 38.344 52.7019 38.244 52.5019L35.834 43.4639H24.587L22.177 52.5019C22.077 52.7029 21.876 52.8029 21.675 52.8029C21.474 52.7019 21.374 52.5019 21.374 52.3009L23.884 42.9619C23.884 42.7609 24.085 42.6609 24.286 42.6609H36.135C36.336 42.6609 36.437 42.7609 36.537 42.9619L39.047 52.3009C39.046 52.5019 38.947 52.7029 38.645 52.8029Z" fill="#1E81CE"/>
<path d="M46.076 55.113H14.444C14.244 55.113 14.043 54.912 14.043 54.711V52.401C14.043 52.2 14.244 52 14.444 52H46.076C46.277 52 46.478 52.201 46.478 52.401V54.711C46.377 54.912 46.277 55.113 46.076 55.113ZM14.7449 54.31H45.674V52.804H14.7449V54.31Z" fill="#1E81CE"/>
<path d="M30.21 41.556C29.306 41.556 28.703 40.953 28.703 40.15C28.703 39.347 29.406 38.644 30.21 38.644C31.013 38.644 31.716 39.347 31.716 40.15C31.716 40.954 31.114 41.556 30.21 41.556ZM30.21 39.347C29.808 39.347 29.406 39.648 29.406 40.15C29.406 40.652 29.807 40.753 30.21 40.753C30.611 40.753 31.013 40.552 31.013 40.15C31.013 39.748 30.612 39.347 30.21 39.347Z" fill="#1E81CE"/>
<path d="M37.842 57.3221H10.026C9.825 57.3221 9.625 57.1211 9.625 56.9201C9.625 56.7191 9.825 56.5181 10.026 56.5181H37.942C38.143 56.5181 38.344 56.7191 38.344 56.9201C38.244 57.1211 38.042 57.3221 37.842 57.3221Z" fill="#1E81CE"/>
<path d="M45.6741 59.4309H26.2931C26.0931 59.4309 25.8921 59.2299 25.8921 59.0299C25.8921 58.8289 26.0931 58.6279 26.2931 58.6279H45.6741C45.8751 58.6279 46.0751 58.8289 46.0751 59.0299C46.0761 59.3299 45.8751 59.4309 45.6741 59.4309Z" fill="#1E81CE"/>
<path d="M18.059 59.3299H8.92102C8.72002 59.3299 8.52002 59.1289 8.52002 58.9289C8.52002 58.7289 8.72002 58.5269 8.92102 58.5269H18.059C18.26 58.5269 18.461 58.7279 18.461 58.9289C18.461 59.1299 18.26 59.3299 18.059 59.3299Z" fill="#1E81CE"/>
<path d="M16.754 11.0291H9.92505C9.72505 11.0291 9.52405 10.8281 9.52405 10.6271C9.52405 10.4261 9.72505 10.2251 9.92505 10.2251H16.754C16.954 10.2251 17.155 10.4261 17.155 10.6271C17.156 10.8281 16.955 11.0291 16.754 11.0291Z" fill="#1E81CE"/>
<path d="M23.683 13.6399H10.026C9.825 13.6399 9.625 13.4389 9.625 13.2379C9.625 13.0369 9.825 12.8359 10.026 12.8359H23.683C23.883 12.8359 24.084 13.0369 24.084 13.2379C24.084 13.4389 23.883 13.6399 23.683 13.6399Z" fill="#1E81CE"/>
<path d="M23.683 16.1499H10.026C9.825 16.1499 9.625 15.9489 9.625 15.7479C9.625 15.5469 9.825 15.3469 10.026 15.3469H23.683C23.883 15.3469 24.084 15.5479 24.084 15.7479C24.084 15.9499 23.883 16.1499 23.683 16.1499Z" fill="#1E81CE"/>
<path d="M1.39001 19.163C1.18901 19.163 0.988037 18.962 0.988037 18.761V4.60303C0.988037 2.59403 2.59503 0.988037 4.60303 0.988037H12.737C12.938 0.988037 13.139 1.18904 13.139 1.39004C13.139 1.59104 12.938 1.79104 12.737 1.79104H4.60303C2.99703 1.79104 1.69104 3.09704 1.69104 4.70304V18.862C1.69104 18.962 1.59001 19.163 1.39001 19.163Z" fill="#1E81CE"/>
<path d="M59.13 11.029C58.93 11.029 58.729 10.828 58.729 10.627V4.60198C58.729 2.99498 57.423 1.68999 55.817 1.68999C55.616 1.68999 55.415 1.48899 55.415 1.28799C55.415 1.08699 55.616 0.885986 55.817 0.885986C57.825 0.885986 59.432 2.49298 59.432 4.50098V10.526C59.432 10.828 59.331 11.029 59.13 11.029Z" fill="#1E81CE"/>
<path d="M40.955 27.196C39.248 27.196 37.7419 25.79 37.7419 23.983C37.7419 22.276 39.147 20.77 40.955 20.77C42.662 20.77 44.1689 22.176 44.1689 23.983C44.0679 25.79 42.661 27.196 40.955 27.196ZM40.955 21.673C39.649 21.673 38.545 22.777 38.545 24.083C38.545 25.389 39.649 26.493 40.955 26.493C42.261 26.493 43.365 25.389 43.365 24.083C43.365 22.678 42.26 21.673 40.955 21.673Z" fill="#1E81CE"/>
<path d="M41.456 32.0171H40.3521C40.1521 32.0171 40.051 31.9161 39.951 31.7161L39.649 29.9081C39.449 29.9081 39.147 29.8071 38.947 29.7071L37.742 31.1131C37.641 31.2141 37.4401 31.3141 37.2401 31.2141L36.336 30.7111C36.135 30.6111 36.135 30.4101 36.135 30.2091L36.838 28.5021C36.638 28.3011 36.537 28.2011 36.336 28.0001L34.629 28.7031C34.428 28.8041 34.228 28.7031 34.127 28.5021L33.625 27.5981C33.524 27.3971 33.524 27.1961 33.726 27.0961L35.131 25.8911C35.03 25.6901 35.03 25.3891 34.931 25.1881L33.123 24.8871C32.922 24.8871 32.821 24.6861 32.821 24.4861V23.3811C32.821 23.1801 32.922 23.0801 33.123 22.9801L34.931 22.6791C34.931 22.4781 35.031 22.1771 35.131 21.9761L33.726 20.7711C33.625 20.6711 33.525 20.4701 33.625 20.2691L34.127 19.3651C34.228 19.1641 34.428 19.1641 34.629 19.1641L36.336 19.8671C36.537 19.6661 36.638 19.5661 36.838 19.3651L36.135 17.6581C36.035 17.4571 36.135 17.2561 36.336 17.1561L37.2401 16.6531C37.4401 16.5531 37.641 16.5531 37.742 16.7541L38.947 18.1601C39.147 18.0591 39.449 18.0591 39.649 17.9591L39.951 16.1511C39.951 15.9501 40.1521 15.8501 40.3521 15.8501H41.456C41.657 15.8501 41.758 15.9511 41.858 16.1511L42.159 17.9591C42.36 17.9591 42.661 18.0591 42.862 18.1601L44.067 16.7541C44.168 16.6531 44.368 16.5531 44.569 16.6531L45.473 17.1551C45.674 17.2551 45.674 17.4561 45.674 17.6571L44.971 19.3641C45.172 19.5651 45.273 19.6651 45.473 19.8661L47.181 19.1631C47.381 19.0621 47.582 19.1631 47.683 19.3641L48.185 20.2681C48.286 20.4691 48.286 20.6701 48.084 20.7701L46.578 22.1761C46.678 22.3771 46.678 22.5781 46.778 22.8791L48.586 23.1801C48.787 23.1801 48.888 23.3811 48.888 23.5821V24.6861C48.888 24.8871 48.787 24.9871 48.586 25.0871L46.778 25.3891C46.778 25.5901 46.677 25.8911 46.578 26.0921L47.983 27.1961C48.084 27.2971 48.184 27.4971 48.084 27.6981L47.582 28.6021C47.481 28.8031 47.28 28.8031 47.08 28.8031L45.373 28.1001C45.172 28.3011 45.071 28.4011 44.871 28.6021L45.573 30.3091C45.674 30.5101 45.573 30.7101 45.373 30.8111L44.469 31.2131C44.269 31.3131 44.068 31.3131 43.967 31.1121L42.762 29.7061C42.561 29.8061 42.26 29.8061 42.059 29.9071L41.758 31.7151C41.859 31.9161 41.658 32.0171 41.456 32.0171ZM40.754 31.3131H41.155L41.456 29.5061C41.456 29.3051 41.657 29.2041 41.758 29.2041C42.059 29.1041 42.461 29.1041 42.862 28.9031C43.063 28.8031 43.163 28.9031 43.263 29.0041L44.367 30.4101L44.769 30.2091L44.066 28.5021C43.965 28.3011 44.066 28.2011 44.167 28.1001C44.468 27.8991 44.669 27.5981 44.97 27.2971C45.071 27.1961 45.272 27.0961 45.372 27.1961L47.079 27.8991L47.2791 27.4971L45.874 26.3931C45.773 26.2931 45.673 26.0921 45.773 25.9911C45.874 25.6901 45.974 25.2881 46.074 24.8861C46.074 24.6851 46.275 24.5851 46.376 24.5851L48.184 24.2841V23.8831L46.376 23.5821C46.175 23.5821 46.074 23.3811 46.074 23.2811C45.974 22.8791 45.874 22.5781 45.773 22.1761C45.672 21.9751 45.773 21.8751 45.874 21.7751L47.2791 20.6711L47.079 20.2691L45.372 20.9721C45.171 21.0721 45.07 20.9721 44.97 20.8711C44.77 20.5701 44.468 20.3691 44.167 20.0681C44.066 19.9671 43.966 19.7671 44.066 19.6661L44.769 17.9591L44.367 17.7581L43.263 19.0631C43.162 19.1641 42.962 19.2641 42.862 19.1641C42.461 19.0631 42.159 18.9631 41.758 18.8631C41.557 18.8631 41.456 18.6621 41.456 18.5621L41.155 16.7541H40.754L40.452 18.5621C40.452 18.7631 40.251 18.8631 40.151 18.8631C39.749 18.9631 39.448 18.9631 39.046 19.1641C38.846 19.2641 38.745 19.1641 38.645 19.0631L37.541 17.6571L37.14 17.8581L37.843 19.5651C37.943 19.7661 37.843 19.8661 37.742 19.9671C37.44 20.1681 37.24 20.4691 36.938 20.7701C36.837 20.8711 36.637 20.9711 36.537 20.8711L34.83 20.1681L34.629 20.5701L36.035 21.6741C36.135 21.7751 36.235 21.9751 36.135 22.0761C36.035 22.3771 35.935 22.7791 35.834 23.1801C35.834 23.3811 35.633 23.4811 35.532 23.4811L33.725 23.7821V24.1841L35.532 24.4851C35.733 24.4851 35.834 24.6861 35.834 24.7861C35.935 25.1871 36.035 25.4891 36.135 25.8901C36.236 26.0911 36.135 26.1911 36.035 26.2911L34.629 27.3961L34.83 27.7971L36.537 27.0941C36.737 26.9931 36.838 27.0941 36.938 27.1941C37.139 27.4951 37.44 27.6961 37.742 27.9981C37.843 28.0981 37.942 28.2991 37.843 28.3991L37.139 30.2091L37.54 30.4101L38.644 29.0041C38.745 28.9031 38.946 28.8031 39.045 28.9031C39.347 29.0041 39.748 29.1041 40.15 29.2041C40.35 29.2041 40.451 29.4051 40.451 29.5061L40.754 31.3131Z" fill="#1E81CE"/>
<path d="M43.867 57.3221H40.051C39.85 57.3221 39.649 57.1211 39.649 56.9201C39.649 56.7191 39.85 56.5181 40.051 56.5181H43.867C44.068 56.5181 44.269 56.7191 44.269 56.9201C44.269 57.1211 44.068 57.3221 43.867 57.3221Z" fill="#1E81CE"/>
<path d="M29.7071 30.6109H29.1051C28.9051 30.6109 28.7041 30.4099 28.7041 30.2089C28.7041 30.0079 28.9051 29.8069 29.1051 29.8069H29.7071C29.9081 29.8069 30.1091 30.0079 30.1091 30.2089C30.1101 30.4099 29.9091 30.6109 29.7071 30.6109ZM26.7951 30.6109H26.1931C25.9931 30.6109 25.7921 30.4099 25.7921 30.2089C25.7921 30.0079 25.9931 29.8069 26.1931 29.8069H26.7951C26.9961 29.8069 27.1971 30.0079 27.1971 30.2089C27.1981 30.4099 26.9961 30.6109 26.7951 30.6109ZM23.9841 30.6109H23.3811C23.1811 30.6109 22.9801 30.4099 22.9801 30.2089C22.9801 30.0079 23.1811 29.8069 23.3811 29.8069H23.9841C24.1851 29.8069 24.3851 30.0079 24.3851 30.2089C24.3851 30.4099 24.1851 30.6109 23.9841 30.6109ZM21.0721 30.6109H20.4691C20.2691 30.6109 20.0681 30.4099 20.0681 30.2089C20.0681 30.0079 20.2691 29.8069 20.4691 29.8069H21.0721C21.2731 29.8069 21.4731 30.0079 21.4731 30.2089C21.4731 30.4099 21.2731 30.6109 21.0721 30.6109ZM18.1591 30.6109H17.5571C17.3561 30.6109 17.1561 30.4099 17.1561 30.2089C17.1561 30.0079 17.3561 29.8069 17.5571 29.8069H18.1591C18.3601 29.8069 18.5601 30.0079 18.5601 30.2089C18.5611 30.4099 18.3611 30.6109 18.1591 30.6109ZM15.2471 30.6109H14.6441C14.4431 30.6109 14.2431 30.4099 14.2431 30.2089C14.2431 30.0079 14.4431 29.8069 14.6441 29.8069H15.2471C15.4481 29.8069 15.6481 30.0079 15.6481 30.2089C15.6491 30.4099 15.4491 30.6109 15.2471 30.6109ZM12.4361 30.6109H11.8341C11.6331 30.6109 11.4331 30.4099 11.4331 30.2089C11.4331 30.0079 11.6331 29.8069 11.8341 29.8069H12.4361C12.6371 29.8069 12.8371 30.0079 12.8371 30.2089C12.8371 30.4099 12.6371 30.6109 12.4361 30.6109ZM29.8081 28.5019C29.6081 28.5019 29.4071 28.3009 29.4071 28.0999V27.4969C29.4071 27.2959 29.6081 27.0959 29.8081 27.0959C30.0091 27.0959 30.2101 27.2969 30.2101 27.4969V28.0999C30.2101 28.3009 30.0091 28.5019 29.8081 28.5019ZM29.8081 25.5899C29.6081 25.5899 29.4071 25.3889 29.4071 25.1879V24.5849C29.4071 24.3839 29.6081 24.1839 29.8081 24.1839C30.0091 24.1839 30.2101 24.3849 30.2101 24.5849V25.1879C30.2101 25.3889 30.0091 25.5899 29.8081 25.5899ZM29.8081 22.6779C29.6081 22.6779 29.4071 22.4769 29.4071 22.2759V21.6729C29.4071 21.4719 29.6081 21.2709 29.8081 21.2709C30.0091 21.2709 30.2101 21.4719 30.2101 21.6729V22.2759C30.2101 22.4769 30.0091 22.6779 29.8081 22.6779ZM29.8081 19.7659C29.6081 19.7659 29.4071 19.5649 29.4071 19.3639V18.7609C29.4071 18.5599 29.6081 18.3599 29.8081 18.3599C30.0091 18.3599 30.2101 18.5609 30.2101 18.7609V19.3639C30.2101 19.6649 30.0091 19.7659 29.8081 19.7659ZM29.8081 16.9539C29.6081 16.9539 29.4071 16.7529 29.4071 16.5529V15.9499C29.4071 15.7489 29.6081 15.5479 29.8081 15.5479C30.0091 15.5479 30.2101 15.7489 30.2101 15.9499V16.5529C30.2101 16.7529 30.0091 16.9539 29.8081 16.9539ZM29.8081 14.0409C29.6081 14.0409 29.4071 13.8399 29.4071 13.6399V13.0369C29.4071 12.8359 29.6081 12.6349 29.8081 12.6349C30.0091 12.6349 30.2101 12.8359 30.2101 13.0369V13.6399C30.2101 13.8409 30.0091 14.0409 29.8081 14.0409ZM29.8081 11.1289C29.6081 11.1289 29.4071 10.9279 29.4071 10.7279V10.1249C29.4071 9.9239 29.6081 9.7229 29.8081 9.7229C30.0091 9.7229 30.2101 9.9239 30.2101 10.1249V10.7279C30.2101 10.9289 30.0091 11.1289 29.8081 11.1289ZM47.1811 10.5269H46.5781C46.3771 10.5269 46.1761 10.3259 46.1761 10.1259C46.1761 9.9249 46.3771 9.7239 46.5781 9.7239H47.1811C47.3811 9.7239 47.5821 9.9249 47.5821 10.1259C47.5821 10.3259 47.3811 10.5269 47.1811 10.5269ZM44.2691 10.5269H43.6671C43.4661 10.5269 43.2651 10.3259 43.2651 10.1259C43.2651 9.9249 43.4661 9.7239 43.6671 9.7239H44.2691C44.4691 9.7239 44.6701 9.9249 44.6701 10.1259C44.6701 10.3259 44.4691 10.5269 44.2691 10.5269ZM41.3561 10.5269H40.7541C40.5531 10.5269 40.3521 10.3259 40.3521 10.1259C40.3521 9.9249 40.5531 9.7239 40.7541 9.7239H41.3561C41.5571 9.7239 41.7581 9.9249 41.7581 10.1259C41.7581 10.3259 41.5571 10.5269 41.3561 10.5269ZM38.5441 10.5269H37.9421C37.7421 10.5269 37.5411 10.3259 37.5411 10.1259C37.5411 9.9249 37.7421 9.7239 37.9421 9.7239H38.5441C38.7451 9.7239 38.9461 9.9249 38.9461 10.1259C38.9471 10.3259 38.7451 10.5269 38.5441 10.5269ZM35.6321 10.5269H35.0301C34.8301 10.5269 34.6291 10.3259 34.6291 10.1259C34.6291 9.9249 34.8301 9.7239 35.0301 9.7239H35.6321C35.8331 9.7239 36.0341 9.9249 36.0341 10.1259C36.0341 10.3259 35.8331 10.5269 35.6321 10.5269ZM32.7201 10.5269H32.1181C31.9181 10.5269 31.7171 10.3259 31.7171 10.1259C31.7171 9.9249 31.9181 9.7239 32.1181 9.7239H32.7201C32.9211 9.7239 33.1221 9.9249 33.1221 10.1259C33.1221 10.3259 32.9211 10.5269 32.7201 10.5269Z" fill="#1E81CE"/>
</svg>
