<svg width="59" height="49" viewBox="0 0 59 49" fill="none" xmlns="http://www.w3.org/2000/svg">
<path d="M19.777 28.9089H17.4561V32.2399H19.777V28.9089Z" fill="white"/>
<path d="M19.777 35.469H17.4561V38.8H19.777V35.469Z" fill="white"/>
<path d="M8.37305 35.469H6.25305V38.8H8.37305V35.469Z" fill="white"/>
<path d="M8.37305 28.9089H6.25305V32.2399H8.37305V28.9089Z" fill="white"/>
<path d="M10.694 14.1719H6.25305V20.6309H10.694V14.1719Z" fill="white"/>
<path d="M26.238 6.3999H6.25305V11.4459H26.238V6.3999Z" fill="white"/>
<path d="M55.205 0.748047V3.57405H3.729V40.718H0.499023V0.748047H55.205Z" fill="white"/>
<path d="M58.536 3.57397V43.544H3.729V40.718V3.57497H55.205L58.536 3.57397ZM55.307 40.617V6.39998H28.862V40.617H55.307ZM26.238 11.447V6.40097H6.25302V11.447H26.238ZM19.778 38.699V35.368H17.457V38.699H19.778ZM19.778 32.139V28.808H17.457V32.139H19.778ZM10.694 20.531V14.071H6.25302V20.531H10.694ZM8.37201 38.699V35.368H6.25201V38.699H8.37201ZM8.37201 32.139V28.808H6.25201V32.139H8.37201Z" fill="#9BC9FF"/>
<path d="M55.307 6.3999V40.6169H28.862V6.3999H55.307ZM53.489 38.5979V35.0649V31.4319V27.7979V24.1639V20.4299V16.7959V13.1619V9.5289V8.5199H48.846H42.185H30.779V38.5979H42.184H47.332H53.489Z" fill="white"/>
<path d="M53.489 35.0649V38.5979H47.2321L53.489 35.0649Z" fill="white"/>
<path d="M53.489 31.4319V35.0649L47.232 38.5979H42.084V37.9929L53.489 31.4319Z" fill="#9BC9FF"/>
<path d="M53.489 27.7981V31.4321L42.084 37.9931V34.3591L53.489 27.7981Z" fill="white"/>
<path d="M53.489 24.064V27.798L42.084 34.359V30.625L53.489 24.064Z" fill="#9BC9FF"/>
<path d="M53.489 20.4299V24.0639L42.084 30.6249V26.9909L53.489 20.4299Z" fill="white"/>
<path d="M53.489 16.7959V20.4299L42.084 26.9909V23.3569L53.489 16.7959Z" fill="#9BC9FF"/>
<path d="M53.489 13.1631V16.7961L42.084 23.3571V19.7241L53.489 13.1631Z" fill="white"/>
<path d="M53.489 9.42798V13.163L42.084 19.724V15.989L53.489 9.42798Z" fill="#9BC9FF"/>
<path d="M53.489 8.41895V9.42795L42.084 15.9889V12.3549L48.746 8.41895H53.489Z" fill="white"/>
<path d="M48.746 8.41895L42.084 12.3549V8.41895H48.746Z" fill="#9BC9FF"/>
<path d="M42.084 37.993V38.5979H30.78V8.41895H42.084V12.3549V15.9889V19.7239V23.3569V26.9909V30.6249V34.3589V37.993Z" fill="white"/>
<path d="M58.536 43.9481H3.729C3.527 43.9481 3.32501 43.7461 3.32501 43.5441V40.7181C3.32501 40.5161 3.527 40.3141 3.729 40.3141C3.931 40.3141 4.133 40.5161 4.133 40.7181V43.1401H58.133V3.87709H55.205C55.004 3.87709 54.802 3.6751 54.802 3.4731C54.802 3.2711 55.004 3.06909 55.205 3.06909H58.536C58.738 3.06909 58.94 3.2711 58.94 3.4731V43.4431C58.839 43.7461 58.738 43.9481 58.536 43.9481Z" fill="#1E81CE"/>
<path d="M55.307 41.0211H28.862C28.66 41.0211 28.458 40.8191 28.458 40.6171V6.4001C28.458 6.1981 28.66 5.99609 28.862 5.99609H55.408C55.61 5.99609 55.812 6.1981 55.812 6.4001V40.6171C55.71 40.8191 55.509 41.0211 55.307 41.0211ZM29.265 40.2131H55.004V6.80409H29.265V40.2131Z" fill="#1E81CE"/>
<path d="M26.238 11.8511H6.25302C6.05102 11.8511 5.849 11.6491 5.849 11.4471V6.40106C5.849 6.19906 6.05102 5.99707 6.25302 5.99707H26.238C26.44 5.99707 26.642 6.19906 26.642 6.40106V11.4471C26.54 11.6491 26.44 11.8511 26.238 11.8511ZM6.65601 11.1441H25.833V6.80406H6.65601V11.1441Z" fill="#1E81CE"/>
<path d="M10.694 20.935H6.25302C6.05102 20.935 5.849 20.733 5.849 20.532V14.072C5.849 13.87 6.05102 13.668 6.25302 13.668H10.694C10.896 13.668 11.098 13.87 11.098 14.072V20.532C11.097 20.733 10.896 20.935 10.694 20.935ZM6.65601 20.228H10.289V14.576H6.65601V20.228Z" fill="#1E81CE"/>
<path d="M24.219 15.6859H12.914C12.712 15.6859 12.51 15.4839 12.51 15.2819C12.51 15.0799 12.712 14.8779 12.914 14.8779H24.118C24.32 14.8779 24.522 15.0799 24.522 15.2819C24.522 15.4839 24.421 15.6859 24.219 15.6859Z" fill="#1E81CE"/>
<path d="M24.219 17.806H12.914C12.712 17.806 12.51 17.604 12.51 17.402C12.51 17.2 12.712 16.999 12.914 16.999H24.118C24.32 16.999 24.522 17.201 24.522 17.402C24.522 17.604 24.421 17.806 24.219 17.806Z" fill="#1E81CE"/>
<path d="M24.219 19.8241H12.914C12.712 19.8241 12.51 19.6221 12.51 19.4211C12.51 19.2191 12.712 19.0171 12.914 19.0171H24.118C24.32 19.0171 24.522 19.2191 24.522 19.4211C24.522 19.6221 24.421 19.8241 24.219 19.8241Z" fill="#1E81CE"/>
<path d="M8.37201 32.5421H6.25201C6.05001 32.5421 5.84802 32.3401 5.84802 32.1381V28.8071C5.84802 28.6051 6.05001 28.4031 6.25201 28.4031H8.37201C8.57401 28.4031 8.776 28.6051 8.776 28.8071V32.1381C8.776 32.3401 8.57401 32.5421 8.37201 32.5421ZM6.65601 31.8351H8.069V29.3121H6.65601V31.8351Z" fill="#1E81CE"/>
<path d="M15.236 30.0189H9.685C9.483 30.0189 9.28101 29.8169 9.28101 29.6149C9.28101 29.4129 9.483 29.2109 9.685 29.2109H15.236C15.438 29.2109 15.64 29.4129 15.64 29.6149C15.639 29.8169 15.438 30.0189 15.236 30.0189Z" fill="#1E81CE"/>
<path d="M15.236 31.6339H9.685C9.483 31.6339 9.28101 31.4319 9.28101 31.2299C9.28101 31.0279 9.483 30.8259 9.685 30.8259H15.236C15.438 30.8259 15.64 31.0279 15.64 31.2299C15.639 31.4319 15.438 31.6339 15.236 31.6339Z" fill="#1E81CE"/>
<path d="M19.778 32.5421H17.457C17.255 32.5421 17.053 32.3401 17.053 32.1381V28.8071C17.053 28.6051 17.255 28.4031 17.457 28.4031H19.778C19.98 28.4031 20.182 28.6051 20.182 28.8071V32.1381C20.181 32.3401 19.98 32.5421 19.778 32.5421ZM17.86 31.8351H19.374V29.3121H17.86V31.8351Z" fill="#1E81CE"/>
<path d="M26.44 30.0189H20.888C20.686 30.0189 20.484 29.8169 20.484 29.6149C20.484 29.4129 20.686 29.2109 20.888 29.2109H26.44C26.642 29.2109 26.843 29.4129 26.843 29.6149C26.843 29.8169 26.641 30.0189 26.44 30.0189Z" fill="#1E81CE"/>
<path d="M26.44 31.6339H20.888C20.686 31.6339 20.484 31.4319 20.484 31.2299C20.484 31.0279 20.686 30.8259 20.888 30.8259H26.44C26.642 30.8259 26.843 31.0279 26.843 31.2299C26.843 31.4319 26.641 31.6339 26.44 31.6339Z" fill="#1E81CE"/>
<path d="M8.37201 39.1031H6.25201C6.05001 39.1031 5.84802 38.9011 5.84802 38.6991V35.3681C5.84802 35.1661 6.05001 34.9651 6.25201 34.9651H8.37201C8.57401 34.9651 8.776 35.1671 8.776 35.3681V38.6991C8.776 38.9011 8.57401 39.1031 8.37201 39.1031ZM6.65601 38.3961H8.069V35.8731H6.65601V38.3961Z" fill="#1E81CE"/>
<path d="M15.236 36.579H9.685C9.483 36.579 9.28101 36.377 9.28101 36.175C9.28101 35.973 9.483 35.771 9.685 35.771H15.236C15.438 35.771 15.64 35.973 15.64 36.175C15.639 36.378 15.438 36.579 15.236 36.579Z" fill="#1E81CE"/>
<path d="M15.236 38.194H9.685C9.483 38.194 9.28101 37.992 9.28101 37.791C9.28101 37.589 9.483 37.387 9.685 37.387H15.236C15.438 37.387 15.64 37.589 15.64 37.791C15.639 37.993 15.438 38.194 15.236 38.194Z" fill="#1E81CE"/>
<path d="M19.778 39.1031H17.457C17.255 39.1031 17.053 38.9011 17.053 38.6991V35.3681C17.053 35.1661 17.255 34.9651 17.457 34.9651H19.778C19.98 34.9651 20.182 35.1671 20.182 35.3681V38.6991C20.181 38.9011 19.98 39.1031 19.778 39.1031ZM17.86 38.3961H19.374V35.8731H17.86V38.3961Z" fill="#1E81CE"/>
<path d="M26.44 36.579H20.888C20.686 36.579 20.484 36.377 20.484 36.175C20.484 35.973 20.686 35.771 20.888 35.771H26.44C26.642 35.771 26.843 35.973 26.843 36.175C26.843 36.378 26.641 36.579 26.44 36.579Z" fill="#1E81CE"/>
<path d="M26.44 38.194H20.888C20.686 38.194 20.484 37.992 20.484 37.791C20.484 37.589 20.686 37.387 20.888 37.387H26.44C26.642 37.387 26.843 37.589 26.843 37.791C26.843 37.993 26.641 38.194 26.44 38.194Z" fill="#1E81CE"/>
<path d="M53.489 39.0019H42.084C41.882 39.0019 41.681 38.7999 41.681 38.5979C41.681 38.3959 41.882 38.1939 42.084 38.1939H53.086V8.82191H42.084C41.882 8.82191 41.681 8.61991 41.681 8.41791C41.681 8.21591 41.882 8.01392 42.084 8.01392H53.489C53.691 8.01392 53.893 8.21591 53.893 8.41791V38.5969C53.793 38.7999 53.692 39.0019 53.489 39.0019Z" fill="#1E81CE"/>
<path d="M42.084 12.7591C41.983 12.7591 41.781 12.6581 41.781 12.5571C41.68 12.3551 41.781 12.1531 41.882 12.0531L48.544 8.11705C48.746 8.01605 48.947 8.11706 49.049 8.21706C49.149 8.41906 49.049 8.62105 48.947 8.72205L42.286 12.6591C42.185 12.7591 42.185 12.7591 42.084 12.7591Z" fill="#1E81CE"/>
<path d="M42.084 16.3919C41.983 16.3919 41.781 16.2909 41.781 16.1899C41.68 15.9879 41.781 15.7859 41.882 15.6849L53.288 9.12387C53.489 9.02287 53.691 9.12387 53.793 9.22487C53.894 9.42687 53.793 9.62786 53.691 9.72886L42.286 16.2889C42.185 16.3919 42.185 16.3919 42.084 16.3919Z" fill="#1E81CE"/>
<path d="M42.084 20.0259C41.983 20.0259 41.781 19.9249 41.781 19.8239C41.68 19.6219 41.781 19.4209 41.882 19.3199L53.288 12.7589C53.489 12.6579 53.691 12.7589 53.793 12.8599C53.894 13.0619 53.793 13.2639 53.691 13.3649L42.286 19.9259C42.185 20.0259 42.185 20.0259 42.084 20.0259Z" fill="#1E81CE"/>
<path d="M42.084 23.761C41.983 23.761 41.781 23.66 41.781 23.559C41.68 23.357 41.781 23.155 41.882 23.054L53.288 16.493C53.489 16.392 53.691 16.493 53.793 16.594C53.894 16.796 53.793 16.998 53.691 17.098L42.286 23.659C42.185 23.66 42.185 23.761 42.084 23.761Z" fill="#1E81CE"/>
<path d="M42.084 27.394C41.983 27.394 41.781 27.293 41.781 27.192C41.68 26.99 41.781 26.7881 41.882 26.6871L53.288 20.127C53.489 20.026 53.691 20.127 53.793 20.228C53.894 20.43 53.793 20.632 53.691 20.733L42.286 27.294C42.185 27.394 42.185 27.394 42.084 27.394Z" fill="#1E81CE"/>
<path d="M42.084 31.0281C41.983 31.0281 41.781 30.9271 41.781 30.8261C41.68 30.6241 41.781 30.4231 41.882 30.3221L53.288 23.7611C53.489 23.6601 53.691 23.7611 53.793 23.8621C53.894 24.0641 53.793 24.2661 53.691 24.3671L42.286 30.9281C42.185 31.0281 42.185 31.0281 42.084 31.0281Z" fill="#1E81CE"/>
<path d="M42.084 34.6619C41.983 34.6619 41.781 34.5609 41.781 34.4599C41.68 34.2579 41.781 34.0559 41.882 33.9559L53.288 27.3949C53.489 27.2939 53.691 27.3949 53.793 27.4959C53.894 27.6979 53.793 27.8999 53.691 27.9999L42.286 34.5609C42.185 34.6619 42.185 34.6619 42.084 34.6619Z" fill="#1E81CE"/>
<path d="M42.084 38.396C41.983 38.396 41.781 38.295 41.781 38.194C41.68 37.992 41.781 37.791 41.882 37.69L53.288 31.129C53.489 31.028 53.691 31.129 53.793 31.23C53.894 31.432 53.793 31.634 53.691 31.735L42.286 38.296C42.185 38.295 42.185 38.396 42.084 38.396Z" fill="#1E81CE"/>
<path d="M47.232 39.002C47.131 39.002 46.929 38.901 46.929 38.8C46.829 38.598 46.929 38.396 47.031 38.295L53.187 34.7621C53.389 34.6611 53.591 34.762 53.692 34.863C53.794 35.065 53.692 35.2671 53.591 35.3681L47.434 38.901C47.434 39.002 47.333 39.002 47.232 39.002Z" fill="#1E81CE"/>
<path d="M42.084 39.0019H30.779C30.577 39.0019 30.375 38.7999 30.375 38.5979V8.4189C30.375 8.2169 30.577 8.01489 30.779 8.01489H42.184C42.386 8.01489 42.588 8.2169 42.588 8.4189V38.5979C42.488 38.7999 42.286 39.0019 42.084 39.0019ZM31.082 38.1939H41.681V8.8219H31.082V38.1939Z" fill="#1E81CE"/>
<path d="M39.662 11.3461H37.239C37.037 11.3461 36.836 11.1441 36.836 10.9421C36.836 10.7401 37.037 10.5381 37.239 10.5381H39.662C39.863 10.5381 40.065 10.7401 40.065 10.9421C40.066 11.1441 39.863 11.3461 39.662 11.3461Z" fill="#1E81CE"/>
<path d="M38.552 12.4559C38.35 12.4559 38.148 12.2539 38.148 12.0529V9.7309C38.148 9.5289 38.35 9.3269 38.552 9.3269C38.753 9.3269 38.955 9.5289 38.955 9.7309V12.0529C38.955 12.3549 38.753 12.4559 38.552 12.4559Z" fill="#1E81CE"/>
<path d="M34.615 36.983H32.192C31.99 36.983 31.789 36.7811 31.789 36.5791C31.789 36.3771 31.99 36.175 32.192 36.175H34.615C34.816 36.175 35.018 36.3771 35.018 36.5791C35.019 36.7811 34.817 36.983 34.615 36.983Z" fill="#1E81CE"/>
<path d="M41.1761 46.2689H5.14203C4.94003 46.2689 4.73804 46.0669 4.73804 45.8649C4.73804 45.6629 4.94003 45.4609 5.14203 45.4609H41.276C41.478 45.4609 41.6801 45.6629 41.6801 45.8649C41.5791 46.1679 41.3781 46.2689 41.1761 46.2689Z" fill="#1E81CE"/>
<path d="M51.168 48.591H26.237C26.035 48.591 25.833 48.389 25.833 48.187C25.833 47.985 26.035 47.783 26.237 47.783H51.269C51.47 47.783 51.672 47.985 51.672 48.187C51.572 48.389 51.37 48.591 51.168 48.591Z" fill="#1E81CE"/>
<path d="M56.82 48.591H53.691C53.489 48.591 53.288 48.389 53.288 48.187C53.288 47.985 53.489 47.783 53.691 47.783H56.82C57.022 47.783 57.224 47.985 57.224 48.187C57.225 48.389 57.023 48.591 56.82 48.591Z" fill="#1E81CE"/>
<path d="M15.438 48.4901H3.73004C3.52804 48.4901 3.32605 48.2881 3.32605 48.0861C3.32605 47.8841 3.52804 47.6831 3.73004 47.6831H15.438C15.64 47.6831 15.841 47.8851 15.841 48.0861C15.841 48.2881 15.639 48.4901 15.438 48.4901Z" fill="#1E81CE"/>
<path d="M3.729 41.122H0.39801C0.19601 41.122 -0.00598145 40.92 -0.00598145 40.718V0.747986C-0.00598145 0.545986 0.19601 0.343994 0.39801 0.343994H55.205C55.407 0.343994 55.609 0.545986 55.609 0.747986V3.57399C55.609 3.77599 55.407 3.97699 55.205 3.97699H4.133V40.818C4.133 40.92 3.931 41.122 3.729 41.122ZM0.802002 40.415H3.32501V3.57399C3.32501 3.37199 3.527 3.16998 3.729 3.16998H54.802V1.15099H0.802002V40.415Z" fill="#1E81CE"/>
</svg>
